<svg xmlns="http://www.w3.org/2000/svg" xmlns:xlink="http://www.w3.org/1999/xlink" fill="none" version="1.1" width="122" height="120" viewBox="0 0 122 120"><defs><linearGradient x1="122" y1="60" x2="0" y2="60" gradientUnits="userSpaceOnUse" id="master_svg0_2_0821"><stop offset="0%" stop-color="#23B2FF" stop-opacity="1"/><stop offset="100%" stop-color="#6C57FF" stop-opacity="1"/></linearGradient></defs><g style="opacity:0.10000000149011612;"><path d="M36,15.639999C25.92,15.639999,18.119999,19.720001,12.599999,28.120003C7.3199997,36.040001,4.6799998,46.720001,4.6799998,60.16C4.6799998,73.599998,7.3199997,84.279999,12.599999,92.199997C18.119999,100.48,25.92,104.68,36,104.68C45.959999,104.68,53.759998,100.48,59.399998,92.199997C64.68,84.279999,67.32,73.599998,67.32,60.16C67.32,46.720001,64.68,36.040001,59.399998,28.120003C53.759998,19.720001,45.959999,15.639999,36,15.639999ZM36,27.520004C42.719997,27.520004,47.52,31.239998,50.399998,38.919998C52.32,44.080002,53.279999,51.16,53.279999,60.16C53.279999,69.040001,52.32,76.120003,50.399998,81.400002C47.52,88.959999,42.719997,92.800003,36,92.800003C29.16,92.800003,24.359999,88.959999,21.6,81.400002C19.68,76.120003,18.719999,69.040001,18.719999,60.16C18.719999,51.16,19.68,44.080002,21.6,38.919998C24.359999,31.239998,29.16,27.520004,36,27.520004ZM99.839996,17.32C96.959999,20.32,93.360001,23.080002,89.040001,25.720001C84.720001,28.120003,80.639999,29.800003,76.800003,30.760002L76.800003,44.68C84.720001,42.400002,91.199997,38.919998,96.360001,34.239998L96.360001,103L110.39999,103L110.39999,17.32L99.839996,17.32Z" fill="url(#master_svg0_2_0821)" fill-opacity="1"/></g></svg>