<svg xmlns="http://www.w3.org/2000/svg" xmlns:xlink="http://www.w3.org/1999/xlink" fill="none" version="1.1" width="144" height="120" viewBox="0 0 144 120"><defs><linearGradient x1="144" y1="60" x2="0" y2="60" gradientUnits="userSpaceOnUse" id="master_svg0_2_0821"><stop offset="0%" stop-color="#23B2FF" stop-opacity="1"/><stop offset="100%" stop-color="#6C57FF" stop-opacity="1"/></linearGradient></defs><g style="opacity:0.10000000149011612;"><path d="M36,15.639999C25.92,15.639999,18.119999,19.720001,12.599999,28.120003C7.3199997,36.040001,4.6799998,46.720001,4.6799998,60.16C4.6799998,73.599998,7.3199997,84.279999,12.599999,92.199997C18.119999,100.48,25.92,104.68,36,104.68C45.959999,104.68,53.759998,100.48,59.399998,92.199997C64.68,84.279999,67.32,73.599998,67.32,60.16C67.32,46.720001,64.68,36.040001,59.399998,28.120003C53.759998,19.720001,45.959999,15.639999,36,15.639999ZM36,27.520004C42.719997,27.520004,47.52,31.239998,50.399998,38.919998C52.32,44.080002,53.279999,51.16,53.279999,60.16C53.279999,69.040001,52.32,76.120003,50.399998,81.400002C47.52,88.959999,42.719997,92.800003,36,92.800003C29.16,92.800003,24.359999,88.959999,21.6,81.400002C19.68,76.120003,18.719999,69.040001,18.719999,60.16C18.719999,51.16,19.68,44.080002,21.6,38.919998C24.359999,31.239998,29.16,27.520004,36,27.520004ZM109.32,15.639999C100.08,15.639999,92.639999,18.760002,87,25C81.479996,30.880005,78.720001,38.560005,78.599998,48.16L92.639999,48.16C92.879997,41.440002,94.32,36.279999,96.959999,32.919998C99.599998,29.32,103.56,27.520004,108.84,27.520004C113.75999,27.520004,117.48,28.599998,120,30.880005C122.39999,33.160004,123.72,36.639999,123.72,41.32C123.72,46.120003,121.8,50.68,118.08,54.880001C115.68,57.400002,111.84,60.639999,106.32,64.479996C96.360001,71.32,89.760002,76.599998,86.639999,80.199997C80.879997,86.68,78.120003,94.239998,78.120003,103L137.88,103L137.88,90.639999L95.639999,90.639999C97.559998,86.32,102.84,81.279999,111.6,75.520004C120,69.880005,126,65.32,129.36,61.720001C134.88,55.600002,137.76001,48.880001,137.76001,41.440002C137.76001,33.760002,135.12,27.639999,129.84,22.840004C124.44,18.040001,117.6,15.639999,109.32,15.639999Z" fill="url(#master_svg0_2_0821)" fill-opacity="1"/></g></svg>