<svg xmlns="http://www.w3.org/2000/svg" xmlns:xlink="http://www.w3.org/1999/xlink" fill="none" version="1.1" width="144" height="120" viewBox="0 0 144 120"><defs><linearGradient x1="144" y1="60" x2="0" y2="60" gradientUnits="userSpaceOnUse" id="master_svg0_2_0821"><stop offset="0%" stop-color="#23B2FF" stop-opacity="1"/><stop offset="100%" stop-color="#6C57FF" stop-opacity="1"/></linearGradient></defs><g style="opacity:0.10000000149011612;"><path d="M36,15.639999C25.92,15.639999,18.119999,19.720001,12.599999,28.120003C7.3199997,36.040001,4.6799998,46.720001,4.6799998,60.16C4.6799998,73.599998,7.3199997,84.279999,12.599999,92.199997C18.119999,100.48,25.92,104.68,36,104.68C45.959999,104.68,53.759998,100.48,59.399998,92.199997C64.68,84.279999,67.32,73.599998,67.32,60.16C67.32,46.720001,64.68,36.040001,59.399998,28.120003C53.759998,19.720001,45.959999,15.639999,36,15.639999ZM36,27.520004C42.719997,27.520004,47.52,31.239998,50.399998,38.919998C52.32,44.080002,53.279999,51.16,53.279999,60.16C53.279999,69.040001,52.32,76.120003,50.399998,81.400002C47.52,88.959999,42.719997,92.800003,36,92.800003C29.16,92.800003,24.359999,88.959999,21.6,81.400002C19.68,76.120003,18.719999,69.040001,18.719999,60.16C18.719999,51.16,19.68,44.080002,21.6,38.919998C24.359999,31.239998,29.16,27.520004,36,27.520004ZM108.84,15.639999C100.44,15.639999,93.479996,17.919998,88.080002,22.720001C82.32,27.520004,79.199997,34.239998,78.480003,42.880001L92.279999,42.880001C92.760002,37.720001,94.440002,33.880005,97.32,31.360001C100.08,28.840004,103.92,27.639999,108.96,27.639999C113.88,27.639999,117.6,28.720001,120.12,30.880005C122.39999,33.040001,123.6,36.160004,123.6,40.360001C123.6,44.560001,122.28,47.800003,119.75999,49.960003C117.12,52.120003,113.28,53.200001,108.24,53.200001L102.24,53.200001L102.24,63.760002L108.24,63.760002C113.75999,63.760002,117.96,64.839996,120.84,67.240005C123.72,69.520004,125.28,73.120003,125.28,78.040001C125.28,82.120003,123.84,85.479996,121.08,88.239998C117.96,91.239998,113.64,92.800003,108.24,92.800003C103.32,92.800003,99.360001,91.360001,96.360001,88.599998C93,85.599998,91.32,81.279999,91.080002,75.760002L76.800003,75.760002C77.519997,85.360001,80.879997,92.800003,86.879997,97.839996C92.279999,102.4,99.479996,104.68,108.36,104.68C117.72,104.68,125.28,102.04,131.03999,96.879997C136.56,91.839996,139.32001,85.360001,139.32001,77.440002C139.32001,72.400002,137.88,68.199997,135,64.959999C132.36,61.84,128.39999,59.560001,123.36,58C132.84,54.880001,137.64,48.639999,137.64,39.280003C137.64,31.840004,135,26.080002,129.84,21.880005C124.56,17.68,117.48,15.639999,108.84,15.639999Z" fill="url(#master_svg0_2_0821)" fill-opacity="1"/></g></svg>