<svg xmlns="http://www.w3.org/2000/svg" xmlns:xlink="http://www.w3.org/1999/xlink" fill="none" version="1.1" width="28" height="28" viewBox="0 0 28 28"><ellipse cx="14" cy="14" rx="13.5" ry="13.5" fill-opacity="0" stroke-opacity="1" stroke="#E1E1E1" fill="none" stroke-width="1"/><path d="M18.930329999999998,8L9.0696698,8C8.01369852,8,7.5,8.54540479,7.5,9.6363662L7.5,16.181800799999998C7.5,17.2728233,7.98194444,17.7884378,9.011591899999999,17.7884378L10.5232422,17.7884378L10.3372767,19.454549C10.3372426,19.655825,10.4435985,19.840578999999998,10.6135674,19.934505C10.6893983,19.977473,10.7742536,19.999983,10.8604708,20C10.9619331,20,11.0634818,19.969374000000002,11.1503084,19.908335L14.1511478,17.7884388L18.988391999999997,17.7884388C20.034971,17.7884388,20.5,17.2728395,20.5,16.181801800000002L20.5,9.636367C20.5,8.54540521,19.97682,8.00000044550987,18.930329999999998,8ZM10.9799371,13.6858902C10.5638382,13.6858902,10.2256656,13.331572999999999,10.2256656,12.8970709C10.2256656,12.4626141,10.5638533,12.1068072,10.9799371,12.1068072C11.395992,12.1068072,11.734222899999999,12.4611845,11.734222899999999,12.8970709C11.7341509,13.333018299999999,11.3945842,13.6858902,10.9799371,13.6858902ZM13.9983449,13.6858902C13.5800538,13.6858902,13.240225800000001,13.331572999999999,13.240225800000001,12.8970709C13.240225800000001,12.4626141,13.5801263,12.1068072,13.9983449,12.1068072C14.416592600000001,12.1068072,14.7564201,12.4611845,14.7564201,12.8970709C14.7564354,13.333018299999999,14.415112,13.6858902,13.9983449,13.6858902ZM17.0214415,13.6858902C16.603137,13.6858902,16.264499700000002,13.331572999999999,16.264499700000002,12.8970709C16.264499700000002,12.4626141,16.603137,12.1068072,17.0214281,12.1068072C17.439545600000002,12.1068072,17.779446999999998,12.4611845,17.779446999999998,12.8970709C17.779446999999998,13.333018299999999,17.4396181,13.6858902,17.0214415,13.6858902Z" fill="#696969" fill-opacity="1" style="mix-blend-mode:passthrough"/></svg>