<svg xmlns="http://www.w3.org/2000/svg" xmlns:xlink="http://www.w3.org/1999/xlink" fill="none" version="1.1" width="16" height="16" viewBox="0 0 16 16"><path d="M7.9995399,16C3.5886047,16,0,12.410936,0,8C0,3.5890641,3.5886045,0,7.9995399,0C12.410936,0,16,3.5890648,16,8C16,12.410936,12.410936,16,7.9995399,16ZM7.9995399,0.92086333C4.0960002,0.92086333,0.92086333,4.0960002,0.92086333,8C0.92086333,11.904001,4.0960002,15.079137,7.9995399,15.079137C11.903541,15.079137,15.079137,11.904001,15.079137,8C15.079137,4.0960002,11.903541,0.92086333,7.9995399,0.92086333Z" fill="#D4D4D4" fill-opacity="1" style="mix-blend-mode:passthrough"/><g><path d="M12.5,9.9233093L12.5,6.0766909Q12.5,5.4235279,11.9891949,4.96001902Q11.482235,4.5,10.771739,4.5L5.228261,4.5Q4.5177648,4.5,4.01080531,4.96001896Q3.5,5.42352754,3.5,6.0766909L3.5,9.9233093Q3.5,10.576473199999999,4.01080531,11.0399814Q4.5177648999999995,11.5,5.228261,11.5L10.771739,11.5Q11.482235,11.5,11.9891949,11.0399814Q12.5,10.576472800000001,12.5,9.9233093ZM4.5320914000000005,5.5967033L7.65166,7.8930526L7.6526818,7.8938472Q7.7973161,8.0063405,7.9938855,8.0063405Q8.1922617,8.0063405,8.3493824,7.8922849L11.467908900000001,5.5967028Q11.2210875,5.28623194,10.771739,5.28623194L5.228261,5.28623194Q4.7789131000000005,5.28623194,4.5320914000000005,5.5967033ZM11.652174,6.4767977000000005L11.652174,9.9233093Q11.652174,10.2465949,11.396673700000001,10.4784369Q11.137329099999999,10.713768,10.7717385,10.713768L5.228261,10.713768Q4.8626703,10.713768,4.6033255,10.4784369Q4.34782624,10.2465949,4.34782624,9.9233093L4.34782624,6.4767977000000005L7.1265621,8.5219703Q7.5197082,8.8073678,7.9999995,8.8073678Q8.5058379,8.8073678,8.8744645,8.521215L11.652174,6.4767977000000005Z" fill-rule="evenodd" fill="#696969" fill-opacity="1"/></g></svg>