<svg xmlns="http://www.w3.org/2000/svg" xmlns:xlink="http://www.w3.org/1999/xlink" fill="none" version="1.1" width="85.94970703125" height="77.533447265625" viewBox="0 0 85.94970703125 77.533447265625"><defs><linearGradient x1="0.5" y1="0" x2="0.5" y2="1" id="master_svg0_2_1730"><stop offset="0%" stop-color="#FF759F" stop-opacity="1"/><stop offset="100%" stop-color="#FF196E" stop-opacity="1"/></linearGradient><filter id="master_svg1_2_3354" filterUnits="objectBoundingBox" color-interpolation-filters="sRGB" x="-1.8506492245838768" y="-1.8506492245838768" width="4.701298449167753" height="4.701298449167753"><feFlood flood-opacity="0" result="BackgroundImageFix"/><feBlend mode="normal" in="SourceGraphic" in2="BackgroundImageFix" result="shape"/><feGaussianBlur stdDeviation="9.5" result="effect1_foregroundBlur"/></filter><clipPath id="bgblur_master_svg2_2_3349_clip_path"><path d="M38.11113 19.055542C38.11113 29.579948 29.579948 38.11113 19.055542 38.11113C8.5311804 38.11113 0 29.579948 0 19.055542C0 8.5330944 8.5311804 0 19.055542 0C29.579948 0 38.11113 8.5330944 38.11113 19.055542C38.11113 19.055542 38.11113 19.055542 38.11113 19.055542Z"/></clipPath><linearGradient x1="-0.0029173658695071936" y1="-0.0068000550381839275" x2="1.0555555820465088" y2="0.89000004529953" id="master_svg3_2_1736"><stop offset="0%" stop-color="#FFFFFF" stop-opacity="0.4000000059604645"/><stop offset="100%" stop-color="#FFFFFF" stop-opacity="0"/></linearGradient><filter id="master_svg4_2_3351" filterUnits="objectBoundingBox" color-interpolation-filters="sRGB" x="-0.9390545569629224" y="-0.6698413560975868" width="2.633138359935517" height="2.786243616260231"><feFlood flood-opacity="0" result="BackgroundImageFix"/><feColorMatrix in="SourceAlpha" type="matrix" values="0 0 0 0 0 0 0 0 0 0 0 0 0 0 0 0 0 0 127 0"/><feOffset dy="5" dx="-3"/><feGaussianBlur stdDeviation="5"/><feColorMatrix type="matrix" values="0 0 0 0 1 0 0 0 0 0.4588235318660736 0 0 0 0 0.6235294342041016 0 0 0 0.30000001192092896 0"/><feBlend mode="normal" in2="BackgroundImageFix" result="effect1_dropShadow"/><feBlend mode="normal" in="SourceGraphic" in2="effect1_dropShadow" result="shape"/></filter><clipPath id="bgblur_master_svg5_2_3351_clip_path"><path d="M2.0980446 0.0019810027C1.5651486 -0.021164916 1.0445073 0.15927333 0.65092999 0.50350529C0.25734892 0.8477419 0.023158938 1.3274939 0 1.8369771C0 1.8369771 0 2.1356997 0 2.1356997C0 2.1356997 1.2722173 20.250954 1.2722173 20.250954C1.2696646 20.851786 1.5321879 21.425739 1.9952846 21.831924C2.4583859 22.238066 3.0791411 22.438778 3.7050531 22.384693C3.7050531 22.384693 22.632072 21.168465 22.632072 21.168465C23.159359 21.135612 23.651224 20.903305 23.998892 20.522924C24.346558 20.142498 24.521372 19.645359 24.484598 19.141451C24.495426 19.077845 24.495426 19.01298 24.484598 18.949419C22.778278 8.2991066 13.363372 0.33057871 2.0980446 0.0019810027C2.0980446 0.0019810027 2.0980446 0.0019810027 2.0980446 0.0019810027Z"/></clipPath><linearGradient x1="0.9291008114814758" y1="0.1805799901485443" x2="-0.9172639381544125" y2="1.3974916070150802" id="master_svg6_2_1745"><stop offset="0%" stop-color="#FFFFFF" stop-opacity="0.20000000298023224"/><stop offset="100%" stop-color="#FFFFFF" stop-opacity="1"/></linearGradient><filter id="master_svg7_2_3350" filterUnits="objectBoundingBox" color-interpolation-filters="sRGB" x="-2.295918378518155" y="-2.295918378518155" width="7.1224490093817465" height="7.1224490093817465"><feFlood flood-opacity="0" result="BackgroundImageFix"/><feColorMatrix in="SourceAlpha" type="matrix" values="0 0 0 0 0 0 0 0 0 0 0 0 0 0 0 0 0 0 127 0"/><feOffset dy="5" dx="5"/><feGaussianBlur stdDeviation="5"/><feColorMatrix type="matrix" values="0 0 0 0 0.976190447807312 0 0 0 0 0.2505267560482025 0 0 0 0 0.4713810682296753 0 0 0 0.5 0"/><feBlend mode="normal" in2="BackgroundImageFix" result="effect1_dropShadow"/><feBlend mode="normal" in="SourceGraphic" in2="effect1_dropShadow" result="shape"/></filter><clipPath id="bgblur_master_svg8_2_3350_clip_path"><ellipse cx="3.2666666507720947" cy="3.2666666507720947" rx="3.2666666507720947" ry="3.2666666507720947"/></clipPath><linearGradient x1="0.9291008114814758" y1="0.1805799901485443" x2="-0.8136671781539917" y2="1.5546742677688599" id="master_svg9_2_1739"><stop offset="0%" stop-color="#FFFFFF" stop-opacity="1"/><stop offset="100%" stop-color="#FFFFFF" stop-opacity="0.20000000298023224"/></linearGradient><linearGradient x1="0.15918369591236115" y1="0.11650128662586212" x2="0.795918345451355" y2="0.907483696937561" id="master_svga_2_1468"><stop offset="0%" stop-color="#FFFFFF" stop-opacity="0.25"/><stop offset="100%" stop-color="#FFFFFF" stop-opacity="0"/></linearGradient></defs><path d="M59.70359420860291,41.63294268435669C59.70359420860291,52.15734868435669,51.17241220860291,60.68853068435669,40.64800620860291,60.68853068435669C30.123644608602905,60.68853068435669,21.592464208602905,52.15734868435669,21.592464208602905,41.63294268435669C21.592464208602905,31.11049508435669,30.123644608602905,22.57740068435669,40.64800620860291,22.57740068435669C51.17241220860291,22.57740068435669,59.70359420860291,31.11049508435669,59.70359420860291,41.63294268435669C59.70359420860291,41.63294268435669,59.70359420860291,41.63294268435669,59.70359420860291,41.63294268435669Z" fill="url(#master_svg0_2_1730)" fill-opacity="1"/><path d="M49.03328660102844,38.76672422045898C49.03328660102844,44.437005220458985,44.43689960102844,49.033392220458985,38.76661860102844,49.033392220458985C33.09633850102844,49.033392220458985,28.499951601028442,44.437005220458985,28.499951601028442,38.76672422045898C28.499951601028442,33.097470720458986,33.09633850102844,28.500057220458984,38.76661860102844,28.500057220458984C44.43689960102844,28.500057220458984,49.03328660102844,33.097470720458986,49.03328660102844,38.76672422045898C49.03328660102844,38.76672422045898,49.03328660102844,38.76672422045898,49.03328660102844,38.76672422045898Z" fill="#E31352" fill-opacity="1" style="opacity:0.5;" filter="url(#master_svg1_2_3354)"/><foreignObject x="66.70310139656067" y="66.75578546524048" width="38.11112976074219" height="38.11112976074219"><div xmlns="http://www.w3.org/1999/xhtml" style="backdrop-filter:blur(12px);-webkit-backdrop-filter:blur(12px);clip-path:url(#bgblur_master_svg2_2_3349_clip_path);height:100%;width:100%"></div></foreignObject><g transform="matrix(-1,0,0,-1,133.40620279312134,133.51157093048096)"><path d="M104.81423139656067,85.81132746524048C104.81423139656067,96.33573346524048,96.28304939656067,104.86691546524048,85.75864339656067,104.86691546524048C75.23428179656067,104.86691546524048,66.70310139656067,96.33573346524048,66.70310139656067,85.81132746524048C66.70310139656067,75.28887986524047,75.23428179656067,66.75578546524048,85.75864339656067,66.75578546524048C96.28304939656067,66.75578546524048,104.81423139656067,75.28887986524047,104.81423139656067,85.81132746524048C104.81423139656067,85.81132746524048,104.81423139656067,85.81132746524048,104.81423139656067,85.81132746524048Z" fill="#FF749F" fill-opacity="0.3499999940395355"/><path d="M99.94019639656067,99.99288446524048Q105.81423139656067,94.11884946524049,105.81423139656067,85.81132746524048Q105.81423139656067,77.50496446524048,99.94022339656067,71.63055606524048Q94.06584839656067,65.75578546524048,85.75864339656067,65.75578671524048Q77.45146839656067,65.75578606524049,71.57710579656067,71.63055656524048Q65.70310139656067,77.50496846524048,65.70310389656066,85.81132346524048Q65.70310330656066,94.11883746524047,71.57713009656067,99.99287646524047Q77.45115739656067,105.86691546524048,85.75863939656067,105.86691546524048Q94.06615939656066,105.86691546524048,99.94019639656067,99.99288446524048ZM85.75864339656067,104.86691546524048C96.28304939656067,104.86691546524048,104.81423139656067,96.33573346524048,104.81423139656067,85.81132746524048C104.81423139656067,75.28887986524047,96.28304939656067,66.75578546524048,85.75864339656067,66.75578546524048C75.23428179656067,66.75578546524048,66.70310139656067,75.28887986524047,66.70310139656067,85.81132746524048C66.70310139656067,96.33573346524048,75.23428179656067,104.86691546524048,85.75864339656067,104.86691546524048Z" fill-rule="evenodd" fill="url(#master_svg3_2_1736)" fill-opacity="1"/></g><foreignObject x="48.62341237068176" y="25.53781747817993" width="24.492719650268555" height="22.393362045288086"><div xmlns="http://www.w3.org/1999/xhtml" style="backdrop-filter:blur(7.5px);-webkit-backdrop-filter:blur(7.5px);clip-path:url(#bgblur_master_svg5_2_3351_clip_path);height:100%;width:100%"></div></foreignObject><path d="M50.721456970681764,25.53979848087993C50.18856097068176,25.51665256217993,49.66791967068176,25.697090808179933,49.274342360681764,26.04132276817993C48.88076129068176,26.38555937817993,48.646571308681764,26.865311378179932,48.62341237068176,27.37479457817993C48.62341237068176,27.37479457817993,48.62341237068176,27.67351717817993,48.62341237068176,27.67351717817993C48.62341237068176,27.67351717817993,49.895629670681764,45.78877147817993,49.895629670681764,45.78877147817993C49.89307697068176,46.389603478179936,50.15560027068176,46.96355647817993,50.61869697068176,47.36974147817993C51.081798270681766,47.775883478179935,51.702553470681764,47.97659547817993,52.32846547068176,47.92251047817993C52.32846547068176,47.92251047817993,71.25548437068176,46.70628247817993,71.25548437068176,46.70628247817993C71.78277137068176,46.673429478179926,72.27463637068176,46.441122478179935,72.62230437068176,46.060741478179935C72.96997037068176,45.680315478179935,73.14478437068176,45.18317647817993,73.10801037068177,44.679268478179935C73.11883837068176,44.61566247817993,73.11883837068176,44.55079747817993,73.10801037068177,44.48723647817993C71.40169037068176,33.83692407817993,61.98678437068176,25.868396188179933,50.721456970681764,25.53979848087993C50.721456970681764,25.53979848087993,50.721456970681764,25.53979848087993,50.721456970681764,25.53979848087993Z" fill="url(#master_svg6_2_1745)" fill-opacity="1" transform="matrix(0.9947196245193481,0.10262957960367203,-0.10262957960367203,0.9947196245193481,2.8776853462486827,-4.85535110525791)" filter="url(#master_svg4_2_3351)"/><foreignObject x="43.9922935962677" y="44.97740030288696" width="6.5333333015441895" height="6.5333333015441895"><div xmlns="http://www.w3.org/1999/xhtml" style="backdrop-filter:blur(7.5px);-webkit-backdrop-filter:blur(7.5px);clip-path:url(#bgblur_master_svg8_2_3350_clip_path);height:100%;width:100%"></div></foreignObject><g filter="url(#master_svg7_2_3350)"><ellipse cx="47.258960247039795" cy="48.24406695365906" rx="3.2666666507720947" ry="3.2666666507720947" fill="url(#master_svg9_2_1739)" fill-opacity="1"/><ellipse cx="47.258960247039795" cy="48.24406695365906" rx="3.0666666477918625" ry="3.0666666477918625" stroke="url(#master_svga_2_1468)" fill-opacity="0" fill="none" stroke-width="0.4000000059604645"/></g></svg>