<svg xmlns="http://www.w3.org/2000/svg" xmlns:xlink="http://www.w3.org/1999/xlink" fill="none" version="1.1" width="64" height="64" viewBox="0 0 64 64"><defs><linearGradient x1="1" y1="0.5" x2="0" y2="0.5" id="master_svg0_2_0821"><stop offset="0%" stop-color="#23B2FF" stop-opacity="1"/><stop offset="100%" stop-color="#6C57FF" stop-opacity="1"/></linearGradient><filter id="master_svg1_2_4338" filterUnits="objectBoundingBox" color-interpolation-filters="sRGB" x="0" y="0" width="1" height="1"><feFlood flood-opacity="0" result="BackgroundImageFix"/><feBlend mode="normal" in="SourceGraphic" in2="BackgroundImageFix" result="shape"/><feColorMatrix in="SourceAlpha" type="matrix" result="hardAlpha" values="0 0 0 0 0 0 0 0 0 0 0 0 0 0 0 0 0 0 127 0"/><feOffset dy="4" dx="0"/><feGaussianBlur stdDeviation="5"/><feComposite in2="hardAlpha" operator="arithmetic" k2="-1" k3="1"/><feColorMatrix type="matrix" values="0 0 0 0 1 0 0 0 0 1 0 0 0 0 1 0 0 0 0.6000000238418579 0"/><feBlend mode="normal" in2="shape" result="effect1_innerShadow"/></filter><clipPath id="bgblur_master_svg2_2_4338_clip_path"><path d="M43 3.3068709C43 3.3068709 43 14.329756 43 14.329756C43 16.156231 41.496132 17.636684 39.640568 17.636684C39.640568 17.636684 3.359375 17.636684 3.359375 17.636684C1.5038797 17.636684 0 16.156231 0 14.329756C0 14.329756 0 3.3068709 0 3.3068709C0 1.4803733 1.5038797 0 3.359375 0C3.359375 0 39.640568 0 39.640568 0C41.496132 0 43 1.4803733 43 3.3068709C43 3.3068709 43 3.3068709 43 3.3068709Z"/></clipPath></defs><path d="M33.033789739074706,25.353600999999998C33.033789739074706,25.353600999999998,33.033789739074706,28.880891,33.033789739074706,28.880891C33.033789739074706,29.793618000000002,32.28128873907471,30.534412,31.35407173907471,30.534412C30.426970739074708,30.534412,29.674469739074706,29.793618000000002,29.674469739074706,28.880891C29.674469739074706,28.880891,29.674469739074706,25.353600999999998,29.674469739074706,25.353600999999998C29.674469739074706,20.916878699999998,26.007136739074706,17.3068709,21.499944739074706,17.3068709C16.992797339074706,17.3068709,13.325474739074707,20.916878699999998,13.325474739074707,25.353600999999998C13.325474739074707,25.353600999999998,13.325474739074707,28.880891,13.325474739074707,28.880891C13.325474739074707,29.793618000000002,12.572974639074708,30.534412,11.645792839074707,30.534412C10.718599739074707,30.534412,9.966099739074707,29.793618000000002,9.966099739074707,28.880891C9.966099739074707,28.880891,9.966099739074707,25.353600999999998,9.966099739074707,25.353600999999998C9.966099739074707,19.0936871,15.140651239074707,14,21.499944739074706,14C27.859305739074706,14,33.033789739074706,19.0936871,33.033789739074706,25.353600999999998C33.033789739074706,25.353600999999998,33.033789739074706,25.353600999999998,33.033789739074706,25.353600999999998Z" fill="#BCC1F1" fill-opacity="0.5"/><path d="M34.937503814697266,32.187757931555176C34.937503814697266,32.187757931555176,34.937503814697266,52.35972303155518,34.937503814697266,52.35972303155518C34.937503814697266,52.35972303155518,8.062503814697266,52.35972303155518,8.062503814697266,52.35972303155518C8.062503814697266,52.35972303155518,8.062503814697266,32.187757931555176,8.062503814697266,32.187757931555176C8.062503814697266,30.361260331555176,9.566383514697266,28.880887031555176,11.421878814697266,28.880887031555176C11.421878814697266,28.880887031555176,31.578071814697264,28.880887031555176,31.578071814697264,28.880887031555176C33.43363381469727,28.880887031555176,34.937503814697266,30.361260331555176,34.937503814697266,32.187757931555176C34.937503814697266,32.187757931555176,34.937503814697266,32.187757931555176,34.937503814697266,32.187757931555176Z" fill="url(#master_svg0_2_0821)" fill-opacity="1"/><path d="M23.17961311340332,36.023796806079105C23.17961311340332,36.023796806079105,23.17961311340332,39.5511227060791,23.17961311340332,39.5511227060791C23.17961311340332,40.4638257060791,22.42711301340332,41.204563606079105,21.49991991340332,41.204563606079105C20.57273811340332,41.204563606079105,19.82023811340332,40.4638257060791,19.82023811340332,39.5511227060791C19.82023811340332,39.5511227060791,19.82023811340332,36.023796806079105,19.82023811340332,36.023796806079105C19.82023811340332,35.1110956660791,20.57273811340332,34.3703556060791,21.49991991340332,34.3703556060791C22.42711301340332,34.3703556060791,23.17961311340332,35.1110956660791,23.17961311340332,36.023796806079105C23.17961311340332,36.023796806079105,23.17961311340332,36.023796806079105,23.17961311340332,36.023796806079105Z" fill="#FFFFFF" fill-opacity="1"/><foreignObject x="0" y="46.363319396972656" width="43" height="17.63668441772461"><div xmlns="http://www.w3.org/1999/xhtml" style="backdrop-filter:blur(5px);-webkit-backdrop-filter:blur(5px);clip-path:url(#bgblur_master_svg2_2_4338_clip_path);height:100%;width:100%"></div></foreignObject><path d="M43,49.670190296972656C43,49.670190296972656,43,60.69307539697266,43,60.69307539697266C43,62.519550396972654,41.496132,64.00000339697266,39.640568,64.00000339697266C39.640568,64.00000339697266,3.359375,64.00000339697266,3.359375,64.00000339697266C1.5038797,64.00000339697266,0,62.519550396972654,0,60.69307539697266C0,60.69307539697266,0,49.670190296972656,0,49.670190296972656C0,47.84369269697265,1.5038797,46.363319396972656,3.359375,46.363319396972656C3.359375,46.363319396972656,39.640568,46.363319396972656,39.640568,46.363319396972656C41.496132,46.363319396972656,43,47.84369269697265,43,49.670190296972656C43,49.670190296972656,43,49.670190296972656,43,49.670190296972656Z" fill="#BCC1F1" fill-opacity="0.5" filter="url(#master_svg1_2_4338)"/><path d="M35.83336563354492,56.72542335117188C36.76133963354492,56.72542335117188,37.51361323354492,55.98491285117188,37.51361323354492,55.07143665117187C37.51361323354492,54.157966141171876,36.76133963354492,53.417449951171875,35.83336563354492,53.417449951171875C34.905390623544925,53.417449951171875,34.15311813354492,54.157966141171876,34.15311813354492,55.07143665117187C34.15311813354492,55.98491285117188,34.905390623544925,56.72542335117188,35.83336563354492,56.72542335117188C35.83336563354492,56.72542335117188,35.83336563354492,56.72542335117188,35.83336563354492,56.72542335117188Z" fill="#FFFFFF" fill-opacity="1"/><path d="M28.66660995727539,56.72542335117188C29.59458395727539,56.72542335117188,30.346857557275392,55.98491285117188,30.346857557275392,55.07143665117187C30.346857557275392,54.157966141171876,29.59458395727539,53.417449951171875,28.66660995727539,53.417449951171875C27.73863494727539,53.417449951171875,26.98636245727539,54.157966141171876,26.98636245727539,55.07143665117187C26.98636245727539,55.98491285117188,27.73863494727539,56.72542335117188,28.66660995727539,56.72542335117188C28.66660995727539,56.72542335117188,28.66660995727539,56.72542335117188,28.66660995727539,56.72542335117188Z" fill="#FFFFFF" fill-opacity="1"/><path d="M21.49991991340332,56.72482057651367C22.42758821340332,56.72482057651367,23.17961311340332,55.98456027651367,23.17961311340332,55.071390876513675C23.17961311340332,54.15821927651367,22.42758821340332,53.41794967651367,21.49991991340332,53.41794967651367C20.57225942340332,53.41794967651367,19.82023811340332,54.15821927651367,19.82023811340332,55.071390876513675C19.82023811340332,55.98456027651367,20.57225942340332,56.72482057651367,21.49991991340332,56.72482057651367C21.49991991340332,56.72482057651367,21.49991991340332,56.72482057651367,21.49991991340332,56.72482057651367Z" fill="#FFFFFF" fill-opacity="1"/><path d="M14.333378984985352,56.72542335117188C15.26135298498535,56.72542335117188,16.013626584985353,55.98491285117188,16.013626584985353,55.07143665117187C16.013626584985353,54.157966141171876,15.26135298498535,53.417449951171875,14.333378984985352,53.417449951171875C13.40540397498535,53.417449951171875,12.653131484985352,54.157966141171876,12.653131484985352,55.07143665117187C12.653131484985352,55.98491285117188,13.40540397498535,56.72542335117188,14.333378984985352,56.72542335117188C14.333378984985352,56.72542335117188,14.333378984985352,56.72542335117188,14.333378984985352,56.72542335117188Z" fill="#FFFFFF" fill-opacity="1"/><path d="M7.166622355041504,56.72542335117188C8.094596355041503,56.72542335117188,8.846869955041504,55.98491285117188,8.846869955041504,55.07143665117187C8.846869955041504,54.157966141171876,8.094596355041503,53.417449951171875,7.166622355041504,53.417449951171875C6.238647345041504,53.417449951171875,5.486374855041504,54.157966141171876,5.486374855041504,55.07143665117187C5.486374855041504,55.98491285117188,6.238647345041504,56.72542335117188,7.166622355041504,56.72542335117188C7.166622355041504,56.72542335117188,7.166622355041504,56.72542335117188,7.166622355041504,56.72542335117188Z" fill="#FFFFFF" fill-opacity="1"/></svg>