<svg xmlns="http://www.w3.org/2000/svg" xmlns:xlink="http://www.w3.org/1999/xlink" fill="none" version="1.1" width="64" height="64" viewBox="0 0 64 64"><defs><linearGradient x1="1" y1="0.5" x2="0" y2="0.5" id="master_svg0_2_0821"><stop offset="0%" stop-color="#23B2FF" stop-opacity="1"/><stop offset="100%" stop-color="#6C57FF" stop-opacity="1"/></linearGradient><filter id="master_svg1_2_4237" filterUnits="objectBoundingBox" color-interpolation-filters="sRGB" x="0" y="0" width="1" height="1"><feFlood flood-opacity="0" result="BackgroundImageFix"/><feBlend mode="normal" in="SourceGraphic" in2="BackgroundImageFix" result="shape"/><feColorMatrix in="SourceAlpha" type="matrix" result="hardAlpha" values="0 0 0 0 0 0 0 0 0 0 0 0 0 0 0 0 0 0 127 0"/><feOffset dy="0.10000000149011612" dx="0.20000000298023224"/><feGaussianBlur stdDeviation="0.5"/><feComposite in2="hardAlpha" operator="arithmetic" k2="-1" k3="1"/><feColorMatrix type="matrix" values="0 0 0 0 1 0 0 0 0 1 0 0 0 0 1 0 0 0 0.6000000238418579 0"/><feBlend mode="normal" in2="shape" result="effect1_innerShadow"/></filter><clipPath id="bgblur_master_svg2_2_4237_clip_path"><path d="M0 19.214151C0 8.6024923 8.6061907 0 19.222437 0C19.222437 0 24.407663 0 24.407663 0C32.160259 0 38.444992 6.2819977 38.444992 14.031277C38.444992 21.78042 32.160259 28.062441 24.407663 28.062441C24.407663 28.062441 4.500773 28.062441 4.500773 28.062441C2.0150697 28.062441 0 26.048306 0 23.563698C0 23.563698 0 19.214151 0 19.214151C0 19.214151 0 19.214151 0 19.214151Z"/></clipPath></defs><path d="M46.875,60.32229822033692C46.875,49.83182712033691,55.3727894,41.327585220336914,65.855299,41.327585220336914C65.855299,41.327585220336914,70.806734,41.327585220336914,70.806734,41.327585220336914C78.554724,41.327585220336914,84.835712,47.61332222033691,84.835712,55.36721422033691C84.835712,63.120970220336915,78.554724,69.40672922033691,70.806734,69.40672922033691C70.806734,69.40672922033691,51.373107,69.40672922033691,51.373107,69.40672922033691C48.8888705,69.40672922033691,46.875,67.39139722033691,46.875,64.90530922033692C46.875,64.90530922033692,46.875,60.32229822033692,46.875,60.32229822033692C46.875,60.32229822033692,46.875,60.32229822033692,46.875,60.32229822033692Z" fill="url(#master_svg0_2_0821)" fill-opacity="1" transform="matrix(-0.7448731064796448,-0.6672061681747437,-0.6623559594154358,0.7491892576217651,109.16449922517279,41.64069146300358)"/><foreignObject x="9.39453125" y="44.75581359863281" width="38.44499206542969" height="28.062475204467773"><div xmlns="http://www.w3.org/1999/xhtml" style="backdrop-filter:blur(2px);-webkit-backdrop-filter:blur(2px);clip-path:url(#bgblur_master_svg2_2_4237_clip_path);height:100%;width:100%"></div></foreignObject><path d="M9.39453125,63.969964598632814C9.39453125,53.358305898632814,18.00072195,44.75581359863281,28.61696825,44.75581359863281C28.61696825,44.75581359863281,33.80219425,44.75581359863281,33.80219425,44.75581359863281C41.55479025,44.75581359863281,47.83952325,51.03781129863281,47.83952325,58.787090598632815C47.83952325,66.5362335986328,41.55479025,72.81825459863282,33.80219425,72.81825459863282C33.80219425,72.81825459863282,13.895304249999999,72.81825459863282,13.895304249999999,72.81825459863282C11.40960095,72.81825459863282,9.39453125,70.80411959863281,9.39453125,68.31951159863281C9.39453125,68.31951159863281,9.39453125,63.969964598632814,9.39453125,63.969964598632814C9.39453125,63.969964598632814,9.39453125,63.969964598632814,9.39453125,63.969964598632814Z" fill="#BCC1F1" fill-opacity="0.5" transform="matrix(0.6809991598129272,-0.7322841882705688,0.7278268933296204,0.6857609748840332,-29.577621408018786,20.943489924095047)" filter="url(#master_svg1_2_4237)"/></svg>