<svg xmlns="http://www.w3.org/2000/svg" xmlns:xlink="http://www.w3.org/1999/xlink" fill="none" version="1.1" width="156" height="24" viewBox="0 0 156 24"><defs><linearGradient x1="0.04842034727334976" y1="0.9419288039207458" x2="1.032965952556855" y2="0.834060028907734" id="master_svg0_2_0778"><stop offset="0%" stop-color="#D600FF" stop-opacity="1"/><stop offset="100%" stop-color="#00FFFF" stop-opacity="1"/></linearGradient></defs><g><path d="M4.6607966,2.604121972851181C2.9501369,3.765926972851181,-0.95025271,8.27542957285118,0.21308026,14.014795572851181C0.62372267,15.927918572851182,1.9238245,22.28221757285118,10.477126,23.92203457285118C11.229816,24.05868457285118,14.445858,24.12701157285118,16.70393,22.82882157285118C16.90921,22.69217157285118,17.114489,22.555519572851182,16.772354,22.213888572851182C16.730547,22.17214457285118,16.664219,22.09979357285118,16.57749,22.00518657285118C15.954459,21.325575572851182,14.27863,19.497557572851182,13.077331,19.61751257285118C13.036381,19.62160157285118,12.99439,19.62587457285118,12.951386,19.63024957285118C11.557222,19.772099572851182,9.0992174,20.02219057285118,6.5768213,17.63606157285118C6.0294089,17.157782572851183,3.018647,14.014795572851181,4.7977338,9.027012672851182C5.3451452,7.865474072851181,7.6032162,3.424297872851181,13.761594,4.722488272851181C15.335402,5.1324427728511814,18.483017,6.840587972851181,19.030426,10.598505572851181C19.139141,11.57549957285118,19.118315,12.16443557285118,19.105154,12.536574572851181C19.101748,12.63289357285118,19.098854,12.714689572851182,19.098854,12.784931572851182C19.098854,12.794407572851181,19.098801,12.804146572851181,19.098747,12.814169572851181C19.096848,13.165514572851182,19.093058,13.866672572851181,21.288498,15.859594572851181C21.562204,16.201221572851182,22.451748,16.74782857285118,22.793879,15.517963572851182C23.136009,14.288098572851181,23.34116,13.536515572851181,23.341209,11.62312657285118C23.341209,10.66656757285118,23.067501,5.883761772851181,18.003948,2.1258416728511813C15.609019,0.28104532885118105,9.1769381,-1.017398227148819,4.6607966,2.604121972851181ZM12.393153,14.493053572851181C12.012889,15.035541572851182,12.797225,15.793388572851182,13.273551,16.25362757285118C13.397151,16.37305357285118,13.500011,16.47243957285118,13.556402,16.54282457285118Q14.651198,17.56778957285118,15.19861,18.18272057285118C18.962063,22.21394257285118,19.920033,22.82887357285118,20.94643,23.37547957285118C21.972824,23.92208557285118,23.683487,24.127064572851182,24.504604,23.92208557285118C26.8311,23.44380657285118,28.404909,21.32570557285118,28.883896,20.30081857285118Q29.362879,19.27593357285118,29.362879,16.679552572851183Q29.431305,6.362358372851181,29.431305,5.474123372851181Q29.431305,4.585888272851181,30.526129,4.585888272851181L33.879021,4.585888272851181C35.863388,4.585888272851181,36.958214,4.790865772851181,37.642479,4.995842772851181C41.132225,5.952403872851181,42.227043,9.573670272851182,42.363899,10.59855857285118C42.907085,15.95461757285118,40.014202,17.879666572851182,38.565571,18.843647572851182L38.532021,18.865977572851182C37.095066,19.82253957285118,33.879021,19.82253957285118,32.44207,19.82253957285118C31.005112,19.82253957285118,30.11557,22.00896357285118,29.294453,23.033850572851183C28.554983,23.956827572851182,29.0919,23.937777572851182,29.455872,23.924862572851183C29.496059,23.92343557285118,29.53414,23.92208557285118,29.568159,23.92208557285118L33.879021,23.92208557285118C39.832123,24.263714572851182,43.321869,20.50579557285118,43.869282,19.82253957285118C47.08532,15.99629457285118,46.811615,10.94018657285118,46.469486,9.77864827285118C45.579937,5.542449772851181,42.77446,3.014392672851181,40.311104,1.647889072851181Q37.847755,0.281385816851181,33.879021,0.41802504285118103L26.899529,0.41802504285118103Q26.161446,0.41802504285118103,25.738163,0.783057122851181Q25.062668,1.365590172851181,25.188868,2.877753072851181L25.188868,16.67956457285118C25.188868,16.73934857285118,25.189938,16.81087557285118,25.191139,16.89134457285118C25.199558,17.454643572851182,25.214525,18.456032572851182,24.915161,18.934311572851183C23.716053,20.397738572851182,22.646654,19.59454057285118,21.833246,18.983608572851182C21.811157,18.96701857285118,21.789257,18.95056957285118,21.767548,18.934311572851183C20.94643,18.31938057285118,17.456682,14.49307357285118,16.772398,14.014771572851181C14.377453,12.51152357285118,12.872091,13.809794572851182,12.393153,14.493053572851181ZM43.595894,1.169542582851181C43.253761,0.8279094428511811,43.254097,0.41788801285118105,44.280155,0.41788801285118105L45.511494,0.41788801285118105C45.532944,0.41788801285118105,45.559998,0.417514952851181,45.592197,0.417070952851181C46.176289,0.409017022851181,48.453362,0.377618789851181,49.685844,2.126041472851181C51.054371,4.175877172851181,54.338837,8.753703872851181,54.544121,8.958681872851182C54.745502,9.159768872851181,54.946884,9.62388307285118,55.535889,9.64142977285118C56.124893,9.62388307285118,56.326275,9.159768872851181,56.527657,8.958681872851182C56.732941,8.753703872851181,60.017403,4.175877172851181,61.385933,2.126041472851181C62.618416,0.377618789851181,64.895493,0.409017022851181,65.479576,0.417070952851181C65.51178,0.417514952851181,65.538834,0.41788801285118105,65.560287,0.41788801285118105L66.791618,0.41788801285118105C67.81768,0.41788801285118105,67.818016,0.8279094428511811,67.475883,1.169542582851181C67.133751,1.511175972851181,65.970825,2.945936572851181,65.559944,3.560944872851181C65.149063,4.175953972851181,61.249081,9.505287972851182,59.88055,11.418410572851181Q58.192139,13.846148572851181,55.570515,13.877723572851181L55.570515,13.87813957285118Q55.553211,13.87813957285118,55.535889,13.87803557285118Q55.518566,13.87813957285118,55.501263,13.87813957285118L55.501263,13.877723572851181Q52.879639,13.846148572851181,51.191227,11.418410572851181C49.822697,9.505287972851182,45.922714,4.175953972851181,45.511833,3.560944872851181C45.100948,2.945936572851181,43.938023,1.511175972851181,43.595894,1.169542582851181ZM53.585815,21.86935657285118L53.585815,17.638994572851182Q53.585815,17.54151057285118,53.595371,17.44449357285118Q53.604927,17.34747557285118,53.62394,17.25186257285118Q53.64296,17.15624857285118,53.671257,17.062960572851182Q53.699554,16.96967157285118,53.736858,16.87960657285118Q53.77417,16.78954357285118,53.820122,16.70357057285118Q53.866077,16.617594572851182,53.920235,16.536535572851182Q53.974396,16.45548157285118,54.036243,16.38012557285118Q54.098091,16.30476857285118,54.167023,16.23583357285118Q54.235958,16.16690257285118,54.311314,16.10505757285118Q54.386673,16.04321357285118,54.467724,15.98905257285118Q54.548782,15.93489357285118,54.634758,15.888937572851182Q54.720734,15.842983572851182,54.810795,15.805677572851181Q54.900864,15.768372572851181,54.994152,15.740074572851182Q55.08744,15.711775572851181,55.183052,15.692755572851182Q55.278671,15.673739572851181,55.375683,15.664183572851181Q55.472702,15.65462857285118,55.570183,15.654627572851181Q55.667671,15.65462857285118,55.764687,15.66418457285118Q55.861702,15.673739572851181,55.95731,15.69275657285118Q56.052925,15.711775572851181,56.146214,15.740074572851182Q56.239502,15.768372572851181,56.329563,15.805677572851181Q56.419632,15.842983572851182,56.505608,15.888938572851181Q56.591583,15.93489357285118,56.672634,15.98905257285118Q56.753696,16.04321357285118,56.829056,16.10505857285118Q56.904411,16.166903572851183,56.973343,16.235834572851182Q57.042278,16.30476857285118,57.104118,16.38012557285118Q57.165962,16.455483572851183,57.220119,16.53653757285118Q57.274284,16.617594572851182,57.32024,16.70357057285118Q57.366196,16.789545572851182,57.403496,16.879608572851183Q57.440804,16.96967557285118,57.469101,17.062964572851183Q57.497402,17.15625257285118,57.516418,17.25186257285118Q57.535439,17.34747557285118,57.544998,17.44449357285118Q57.55455,17.54151057285118,57.55455,17.638994572851182L57.55455,21.86935657285118Q57.55455,21.96684557285118,57.544994,22.06385857285118Q57.535439,22.16087657285118,57.516411,22.25648557285118Q57.497398,22.35209957285118,57.469097,22.44538557285118Q57.4408,22.53867257285118,57.403492,22.628737572851183Q57.366188,22.71880257285118,57.320232,22.80477757285118Q57.274281,22.89075357285118,57.220119,22.97180857285118Q57.165962,23.05286657285118,57.104118,23.12822657285118Q57.042278,23.20358157285118,56.973343,23.27251557285118Q56.904411,23.34144857285118,56.829056,23.403292572851182Q56.753696,23.465136572851183,56.672634,23.51929557285118Q56.591583,23.573456572851182,56.505608,23.61941057285118Q56.419632,23.66536557285118,56.329563,23.702669572851182Q56.239502,23.73997757285118,56.146214,23.76827557285118Q56.052925,23.79657457285118,55.957314,23.81559257285118Q55.861702,23.83461257285118,55.764687,23.84416857285118Q55.667671,23.853722572851183,55.570183,23.853722572851183Q55.472702,23.853722572851183,55.375687,23.84416857285118Q55.278667,23.83461257285118,55.183048,23.81559257285118Q55.08744,23.79657457285118,54.994152,23.76827557285118Q54.900864,23.73997757285118,54.810795,23.702669572851182Q54.720734,23.66536557285118,54.634758,23.61941057285118Q54.548782,23.573456572851182,54.46772,23.51929557285118Q54.386665,23.465136572851183,54.31131,23.403292572851182Q54.235954,23.34144857285118,54.167019,23.27251557285118Q54.098087,23.20358157285118,54.036243,23.12822657285118Q53.974396,23.05286657285118,53.920231,22.97180857285118Q53.866074,22.89075357285118,53.820122,22.80477957285118Q53.77417,22.71880257285118,53.736858,22.628737572851183Q53.699554,22.53867257285118,53.671257,22.44538557285118Q53.64296,22.35209957285118,53.62394,22.25648557285118Q53.604927,22.16087657285118,53.595371,22.06385857285118Q53.585815,21.96684557285118,53.585815,21.86935657285118Z" fill-rule="evenodd" fill="url(#master_svg0_2_0778)" fill-opacity="1"/></g><path d="M75.71100231367187,23.503025970458985L75.34133701367188,23.813507270458985L74.92068291367187,23.315886270458986Q74.61475281367187,23.473253770458985,74.23234021367188,23.473253770458985Q73.78194331367187,23.473253770458985,73.45051902367187,23.264848270458984Q73.11909490367188,23.056442970458985,72.94063569367188,22.673657370458983Q72.76217651367188,22.290871870458986,72.76217651367188,21.771985270458984Q72.76217651367188,21.253098170458983,72.94063569367188,20.870312810458984Q73.11909490367188,20.487527310458983,73.45051902367187,20.279121960458983Q73.78194331367187,20.070716623258985,74.23234021367188,20.070716623258985Q74.68273731367188,20.070716623258985,75.01416161367187,20.279121960458983Q75.34558581367187,20.487527310458983,75.52404501367188,20.870312810458984Q75.70250441367187,21.253098170458983,75.70250441367187,21.771985270458984Q75.70250441367187,22.163276870458983,75.59840301367187,22.480138070458985Q75.49430181367188,22.796999470458985,75.29884651367188,23.022417270458984L75.71100231367187,23.503025970458985ZM74.23234021367188,23.022417270458984Q74.44054261367188,23.022417270458984,74.60625481367188,22.945860370458984L74.31307181367187,22.601353370458984L74.67423931367188,22.286618670458985L74.97592021367187,22.639631770458983Q75.20961711367187,22.303631570458982,75.20961711367187,21.771985270458984Q75.20961711367187,21.393452770458985,75.08851961367188,21.110617070458986Q74.96742221367188,20.827781020458985,74.74647281367187,20.674666940458984Q74.52552321367187,20.521552530458983,74.23234021367188,20.521552530458983Q73.93490811367188,20.521552530458983,73.71395886367188,20.674666940458984Q73.49300938367188,20.827781020458985,73.37403655367187,21.110617070458986Q73.25506383367187,21.393452770458985,73.25506383367187,21.771985270458984Q73.25506383367187,22.150517270458984,73.37403655367187,22.433353470458986Q73.49300938367188,22.716189170458986,73.71395886367188,22.869303270458985Q73.93490811367188,23.022417270458984,74.23234021367188,23.022417270458984ZM77.57632541367188,20.126007605458984L77.57632541367188,23.413709170458986L77.09618571367187,23.413709170458986L77.09618571367187,20.126007605458984L77.57632541367188,20.126007605458984ZM79.54362491367188,23.413709170458986L79.06348471367187,23.413709170458986L79.06348471367187,20.126007605458984L79.53087761367188,20.126007605458984L81.11151691367188,22.529049670458985L81.13276101367188,22.529049670458985L81.13276101367188,20.126007605458984L81.61290171367187,20.126007605458984L81.61290171367187,23.413709170458986L81.15825561367187,23.413709170458986L79.56911941367187,21.010667380458983L79.54362491367188,21.010667380458983L79.54362491367188,23.413709170458986ZM84.50224051367188,20.521552530458983Q84.20055851367188,20.521552530458983,83.97323751367188,20.674666940458984Q83.74591351367188,20.827781020458985,83.62269151367187,21.110617070458986Q83.49946951367187,21.393452770458985,83.49946951367187,21.771985270458984Q83.49946951367187,22.154770570458986,83.61844251367188,22.437606570458986Q83.73741551367188,22.720442270458985,83.95836451367188,22.871429670458983Q84.17931451367187,23.022417270458984,84.47674651367187,23.022417270458984Q84.70619351367188,23.022417270458984,84.88252851367187,22.933100970458984Q85.05886351367188,22.843784370458984,85.21182851367188,22.673657370458983L85.21182851367188,22.073960270458983L84.45975051367188,22.073960270458983L84.45975051367188,21.623123970458984L85.68346951367188,21.623123970458984L85.68346951367188,22.848037470458983Q85.44977351367187,23.154265670458983,85.14596851367187,23.313759770458983Q84.84216351367188,23.473253770458985,84.47674651367187,23.473253770458985Q84.03059851367188,23.473253770458985,83.69917451367188,23.264848270458984Q83.36775051367188,23.056442970458985,83.18716651367187,22.671530770458986Q83.00658251367187,22.286618670458985,83.00658251367187,21.771985270458984Q83.00658251367187,21.253098170458983,83.18929151367188,20.868186230458985Q83.37199851367187,20.483274160458983,83.70979551367188,20.274868820458984Q84.04759551367188,20.066463470458984,84.50224051367188,20.066463470458984Q84.87615551367188,20.066463470458984,85.17146251367187,20.234463570458985Q85.46677051367188,20.402464000458984,85.64522851367187,20.695932690458985L85.26281751367188,20.963882450458986Q85.13109651367188,20.763983430458985,84.92501951367187,20.642767970458983Q84.71894051367187,20.521552530458983,84.50224051367188,20.521552530458983ZM87.13238851367187,23.413709170458986L87.13238851367187,20.126007605458984L88.21164151367188,20.126007605458984Q88.72152551367188,20.126007605458984,89.08481751367188,20.325906930458984Q89.44810851367188,20.525805980458983,89.63719151367188,20.895831760458986Q89.82627151367187,21.265857770458986,89.82627151367187,21.771985270458984Q89.82627151367187,22.278112370458985,89.62869251367188,22.648138570458983Q89.43111451367187,23.018164170458984,89.05082551367187,23.215936470458985Q88.67053651367188,23.413709170458986,88.13940851367187,23.413709170458986L87.13238851367187,23.413709170458986ZM88.13940851367187,22.962873170458984Q88.71302651367188,22.962873170458984,89.02108151367187,22.652391670458986Q89.32913551367187,22.341910170458984,89.32913551367187,21.771985270458984Q89.32913551367187,21.197806870458983,89.03170351367187,20.889452040458984Q88.73427151367187,20.581096950458985,88.17340051367188,20.581096950458985L87.61252851367188,20.581096950458985L87.61252851367188,22.962873170458984L88.13940851367187,22.962873170458984ZM93.70138751367188,23.413709170458986L93.19150551367187,23.413709170458986L92.84733151367188,22.431226770458984L91.67035151367187,22.431226770458984L91.32617951367187,23.413709170458986L90.81629751367187,23.413709170458986L92.01027251367188,20.126007605458984L92.50741051367187,20.126007605458984L93.70138751367188,23.413709170458986ZM92.24397051367188,20.793755770458983L91.83181351367188,21.976137070458986L92.68587151367187,21.976137070458986L92.26946651367187,20.793755770458983L92.24397051367188,20.793755770458983ZM99.85398451367188,22.831024870458982Q99.67552351367188,23.132999870458985,99.37596851367188,23.303126770458984Q99.07641051367187,23.473253770458985,98.69824751367187,23.473253770458985Q98.25634951367188,23.473253770458985,97.91642751367188,23.256341970458983Q97.57650351367187,23.039430170458985,97.38954751367187,22.650264970458984Q97.20258951367188,22.261099770458983,97.20258951367188,21.754972370458983Q97.20258951367188,21.257351270458983,97.39167251367188,20.872439380458985Q97.58075551367187,20.487527310458983,97.92279851367188,20.276995390458985Q98.26484451367187,20.066463470458984,98.71099451367188,20.066463470458984Q99.08915751367188,20.066463470458984,99.38446451367187,20.238716740458983Q99.67977351367188,20.410970300458985,99.84973351367188,20.708692130458985L99.44607751367187,20.942616640458983Q99.33135251367187,20.746970770458983,99.12527651367188,20.634261670458983Q98.91919751367188,20.521552530458983,98.69399851367187,20.521552530458983Q98.40081551367187,20.521552530458983,98.17561751367188,20.676793460458985Q97.95041851367188,20.832034170458986,97.82507351367187,21.110617070458986Q97.69972651367188,21.389199570458985,97.69972651367188,21.754972370458983Q97.69972651367188,22.124998370458986,97.82507351367187,22.414213870458983Q97.95041851367188,22.703429670458984,98.17561751367188,22.862923370458983Q98.40081551367187,23.022417270458984,98.69399851367187,23.022417270458984Q98.91494951367187,23.022417270458984,99.11465251367187,22.907581770458986Q99.31435551367187,22.792746270458984,99.45032651367188,22.592847070458983L99.85398451367188,22.831024870458982ZM101.68106851367187,20.126007605458984L101.68106851367187,22.967126370458985L103.27020251367188,22.967126370458985L103.27020251367188,23.413709170458986L101.20092751367187,23.413709170458986L101.20092751367187,20.126007605458984L101.68106851367187,20.126007605458984ZM105.74738651367187,23.473253770458985Q105.30123851367188,23.473253770458985,104.96981451367188,23.264848270458984Q104.63839151367188,23.056442970458985,104.45780751367187,22.671530770458986Q104.27722151367188,22.286618670458985,104.27722151367188,21.771985270458984Q104.27722151367188,21.253098170458983,104.45780751367187,20.868186230458985Q104.63839151367188,20.483274160458983,104.96981451367188,20.274868820458984Q105.30123851367188,20.066463470458984,105.74738651367187,20.066463470458984Q106.19778451367188,20.066463470458984,106.52920951367187,20.274868820458984Q106.86063351367187,20.483274160458983,107.03909351367187,20.868186230458985Q107.21754851367187,21.253098170458983,107.21754851367187,21.771985270458984Q107.21754851367187,22.286618670458985,107.03909351367187,22.671530770458986Q106.86063351367187,23.056442970458985,106.52708451367187,23.264848270458984Q106.19353451367188,23.473253770458985,105.74738651367187,23.473253770458985ZM105.74738651367187,23.022417270458984Q106.04057351367187,23.022417270458984,106.26151651367186,22.869303270458985Q106.48247151367187,22.716189170458986,106.60356551367187,22.433353470458986Q106.72466251367187,22.150517270458984,106.72466251367187,21.771985270458984Q106.72466251367187,21.393452770458985,106.60356551367187,21.110617070458986Q106.48247151367187,20.827781020458985,106.26151651367186,20.674666940458984Q106.04057351367187,20.521552530458983,105.74738651367187,20.521552530458983Q105.44995451367188,20.521552530458983,105.22900751367187,20.674666940458984Q105.00805651367187,20.827781020458985,104.88908751367188,21.110617070458986Q104.77010751367187,21.393452770458985,104.77010751367187,21.771985270458984Q104.77010751367187,22.150517270458984,104.88908751367188,22.433353470458986Q105.00805651367187,22.716189170458986,105.22900751367187,22.869303270458985Q105.44995451367188,23.022417270458984,105.74738651367187,23.022417270458984ZM109.83070351367188,23.022417270458984Q110.17062351367187,23.022417270458984,110.36820651367188,22.794872770458984Q110.56578451367187,22.567328170458985,110.56578451367187,22.176036370458984L110.56578451367187,20.126007605458984L111.05017051367187,20.126007605458984L111.05017051367187,22.205808670458985Q111.05017051367187,22.592847070458983,110.90145851367188,22.879935970458984Q110.75274251367188,23.167025570458986,110.47655451367189,23.320139370458985Q110.20036651367187,23.473253770458985,109.83070351367188,23.473253770458985Q109.46103651367187,23.473253770458985,109.18484851367188,23.320139370458985Q108.90866451367188,23.167025570458986,108.75994851367187,22.879935970458984Q108.61123251367187,22.592847070458983,108.61123251367187,22.205808670458985L108.61123251367187,20.126007605458984L109.09137351367187,20.126007605458984L109.09137351367187,22.159023770458983Q109.09137351367187,22.554568570458983,109.29107651367187,22.788493170458985Q109.49077951367187,23.022417270458984,109.83070351367188,23.022417270458984ZM112.53733451367188,23.413709170458986L112.53733451367188,20.126007605458984L113.61658851367187,20.126007605458984Q114.12646851367188,20.126007605458984,114.48976151367188,20.325906930458984Q114.85305451367188,20.525805980458983,115.04213351367187,20.895831760458986Q115.23121651367188,21.265857770458986,115.23121651367188,21.771985270458984Q115.23121651367188,22.278112370458985,115.03363451367187,22.648138570458983Q114.83605951367187,23.018164170458984,114.45576851367187,23.215936470458985Q114.07548151367187,23.413709170458986,113.54435351367187,23.413709170458986L112.53733451367188,23.413709170458986ZM113.54435351367187,22.962873170458984Q114.11796951367188,22.962873170458984,114.42602551367187,22.652391670458986Q114.73407751367188,22.341910170458984,114.73407751367188,21.771985270458984Q114.73407751367188,21.197806870458983,114.43664951367188,20.889452040458984Q114.13921751367187,20.581096950458985,113.57834251367188,20.581096950458985L113.01747551367188,20.581096950458985L113.01747551367188,22.962873170458984L113.54435351367187,22.962873170458984ZM120.24932051367188,23.413709170458986L119.76493451367188,23.413709170458986L119.76493451367188,20.581096950458985L118.78340551367188,20.581096950458985L118.78340551367188,20.126007605458984L121.22659651367186,20.126007605458984L121.22659651367186,20.581096950458985L120.24932051367188,20.581096950458985L120.24932051367188,23.413709170458986ZM122.97720351367187,21.937858770458984L122.97720351367187,22.967126370458985L124.58757751367187,22.967126370458985L124.58757751367187,23.413709170458986L122.49705851367187,23.413709170458986L122.49705851367187,20.126007605458984L124.53234051367187,20.126007605458984L124.53234051367187,20.572590650458984L122.97720351367187,20.572590650458984L122.97720351367187,21.495529170458983L124.44736051367187,21.495529170458983L124.44736051367187,21.937858770458984L122.97720351367187,21.937858770458984ZM128.44144851367187,22.831024870458982Q128.26299251367186,23.132999870458985,127.96343651367187,23.303126770458984Q127.66387551367188,23.473253770458985,127.28571651367187,23.473253770458985Q126.84381851367188,23.473253770458985,126.50389051367188,23.256341970458983Q126.16397051367187,23.039430170458985,125.97701251367187,22.650264970458984Q125.79005851367188,22.261099770458983,125.79005851367188,21.754972370458983Q125.79005851367188,21.257351270458983,125.97914151367188,20.872439380458985Q126.16822451367187,20.487527310458983,126.51026951367187,20.276995390458985Q126.85231751367188,20.066463470458984,127.29846151367187,20.066463470458984Q127.67662851367187,20.066463470458984,127.97193151367188,20.238716740458983Q128.26724251367187,20.410970300458985,128.43720251367188,20.708692130458985L128.03354251367188,20.942616640458983Q127.91881951367188,20.746970770458983,127.71274151367187,20.634261670458983Q127.50666451367186,20.521552530458983,127.28146751367188,20.521552530458983Q126.98828151367186,20.521552530458983,126.76308451367188,20.676793460458985Q126.53788351367187,20.832034170458986,126.41254051367187,21.110617070458986Q126.28719351367187,21.389199570458985,126.28719351367187,21.754972370458983Q126.28719351367187,22.124998370458986,126.41254051367187,22.414213870458983Q126.53788351367187,22.703429670458984,126.76308451367188,22.862923370458983Q126.98828151367186,23.022417270458984,127.28146751367188,23.022417270458984Q127.50241851367187,23.022417270458984,127.70212151367187,22.907581770458986Q127.90182451367187,22.792746270458984,128.03778851367187,22.592847070458983L128.44144851367187,22.831024870458982ZM131.84067151367188,21.491275670458986L131.84067151367188,20.126007605458984L132.32080851367186,20.126007605458984L132.32080851367186,23.413709170458986L131.84067151367188,23.413709170458986L131.84067151367188,21.942111970458985L130.26853551367188,21.942111970458985L130.26853551367188,23.413709170458986L129.78839151367188,23.413709170458986L129.78839151367188,20.126007605458984L130.26853551367188,20.126007605458984L130.26853551367188,21.491275670458986L131.84067151367188,21.491275670458986ZM134.28811251367188,23.413709170458986L133.80797551367186,23.413709170458986L133.80797551367186,20.126007605458984L134.27536751367188,20.126007605458984L135.85600251367188,22.529049670458985L135.87725051367187,22.529049670458985L135.87725051367187,20.126007605458984L136.35738751367188,20.126007605458984L136.35738751367188,23.413709170458986L135.90274451367188,23.413709170458986L134.31360651367189,21.010667380458983L134.28811251367188,21.010667380458983L134.28811251367188,23.413709170458986ZM139.2212375136719,23.473253770458985Q138.7750935136719,23.473253770458985,138.44366451367188,23.264848270458984Q138.11224351367187,23.056442970458985,137.93165551367187,22.671530770458986Q137.75107551367188,22.286618670458985,137.75107551367188,21.771985270458984Q137.75107551367188,21.253098170458983,137.93165551367187,20.868186230458985Q138.11224351367187,20.483274160458983,138.44366451367188,20.274868820458984Q138.7750935136719,20.066463470458984,139.2212375136719,20.066463470458984Q139.67163051367186,20.066463470458984,140.00305951367187,20.274868820458984Q140.33448051367188,20.483274160458983,140.51293951367188,20.868186230458985Q140.69139851367186,21.253098170458983,140.69139851367186,21.771985270458984Q140.69139851367186,22.286618670458985,140.51293951367188,22.671530770458986Q140.33448051367188,23.056442970458985,140.00093051367188,23.264848270458984Q139.66738151367187,23.473253770458985,139.2212375136719,23.473253770458985ZM139.2212375136719,23.022417270458984Q139.5144195136719,23.022417270458984,139.73536651367186,22.869303270458985Q139.95631451367188,22.716189170458986,140.0774155136719,22.433353470458986Q140.19850951367187,22.150517270458984,140.19850951367187,21.771985270458984Q140.19850951367187,21.393452770458985,140.0774155136719,21.110617070458986Q139.95631451367188,20.827781020458985,139.73536651367186,20.674666940458984Q139.5144195136719,20.521552530458983,139.2212375136719,20.521552530458983Q138.92380551367188,20.521552530458983,138.70285751367186,20.674666940458984Q138.48190351367188,20.827781020458985,138.36293051367187,21.110617070458986Q138.2439575136719,21.393452770458985,138.2439575136719,21.771985270458984Q138.2439575136719,22.150517270458984,138.36293051367187,22.433353470458986Q138.48190351367188,22.716189170458986,138.70285751367186,22.869303270458985Q138.92380551367188,23.022417270458984,139.2212375136719,23.022417270458984ZM142.56522351367187,20.126007605458984L142.56522351367187,22.967126370458985L144.15435751367187,22.967126370458985L144.15435751367187,23.413709170458986L142.08508251367186,23.413709170458986L142.08508251367186,20.126007605458984L142.56522351367187,20.126007605458984ZM146.63153851367187,23.473253770458985Q146.1853945136719,23.473253770458985,145.85397351367186,23.264848270458984Q145.52254451367187,23.056442970458985,145.34196451367188,22.671530770458986Q145.16137651367188,22.286618670458985,145.16137651367188,21.771985270458984Q145.16137651367188,21.253098170458983,145.34196451367188,20.868186230458985Q145.52254451367187,20.483274160458983,145.85397351367186,20.274868820458984Q146.1853945136719,20.066463470458984,146.63153851367187,20.066463470458984Q147.08193951367187,20.066463470458984,147.41336051367188,20.274868820458984Q147.74478151367188,20.483274160458983,147.92324051367189,20.868186230458985Q148.10170751367187,21.253098170458983,148.10170751367187,21.771985270458984Q148.10170751367187,22.286618670458985,147.92324051367189,22.671530770458986Q147.74478151367188,23.056442970458985,147.4112395136719,23.264848270458984Q147.07769051367188,23.473253770458985,146.63153851367187,23.473253770458985ZM146.63153851367187,23.022417270458984Q146.92472851367188,23.022417270458984,147.14567551367188,22.869303270458985Q147.3666155136719,22.716189170458986,147.48772451367188,22.433353470458986Q147.60881851367188,22.150517270458984,147.60881851367188,21.771985270458984Q147.60881851367188,21.393452770458985,147.48772451367188,21.110617070458986Q147.3666155136719,20.827781020458985,147.14567551367188,20.674666940458984Q146.92472851367188,20.521552530458983,146.63153851367187,20.521552530458983Q146.33411451367186,20.521552530458983,146.11315951367186,20.674666940458984Q145.89220451367186,20.827781020458985,145.77323151367187,21.110617070458986Q145.65426651367187,21.393452770458985,145.65426651367187,21.771985270458984Q145.65426651367187,22.150517270458984,145.77323151367187,22.433353470458986Q145.89220451367186,22.716189170458986,146.11315951367186,22.869303270458985Q146.33411451367186,23.022417270458984,146.63153851367187,23.022417270458984ZM150.89757551367188,20.521552530458983Q150.59588651367187,20.521552530458983,150.36856051367187,20.674666940458984Q150.14123551367186,20.827781020458985,150.01801251367186,21.110617070458986Q149.89479051367186,21.393452770458985,149.89479051367186,21.771985270458984Q149.89479051367186,22.154770570458986,150.01376351367188,22.437606570458986Q150.13274351367187,22.720442270458985,150.3536915136719,22.871429670458983Q150.57463051367188,23.022417270458984,150.87207051367187,23.022417270458984Q151.10152451367188,23.022417270458984,151.27785451367185,22.933100970458984Q151.45418551367186,22.843784370458984,151.60715451367187,22.673657370458983L151.60715451367187,22.073960270458983L150.85507251367187,22.073960270458983L150.85507251367187,21.623123970458984L152.07879651367188,21.623123970458984L152.07879651367188,22.848037470458983Q151.8450925136719,23.154265670458983,151.54129051367187,23.313759770458983Q151.2374955136719,23.473253770458985,150.87207051367187,23.473253770458985Q150.4259185136719,23.473253770458985,150.09449751367185,23.264848270458984Q149.76307651367188,23.056442970458985,149.58248851367188,22.671530770458986Q149.40190851367186,22.286618670458985,149.40190851367186,21.771985270458984Q149.40190851367186,21.253098170458983,149.58460951367186,20.868186230458985Q149.76731851367188,20.483274160458983,150.10511751367187,20.274868820458984Q150.44292451367187,20.066463470458984,150.89757551367188,20.066463470458984Q151.27147651367187,20.066463470458984,151.56678751367187,20.234463570458985Q151.86209851367187,20.402464000458984,152.04055751367187,20.695932690458985L151.65814251367186,20.963882450458986Q151.5264205136719,20.763983430458985,151.32033551367186,20.642767970458983Q151.11426551367188,20.521552530458983,150.89757551367188,20.521552530458983ZM154.12257351367188,22.099479170458984L152.99233251367187,20.126007605458984L153.55744951367188,20.126007605458984L154.35202751367189,21.644390070458986L154.37326051367188,21.644390070458986L155.16783151367187,20.126007605458984L155.73721351367186,20.126007605458984L154.60696451367187,22.099479170458984L154.60696451367187,23.413709170458986L154.12257351367188,23.413709170458986L154.12257351367188,22.099479170458984Z" fill="#232323" fill-opacity="1"/><path d="M73.44518691251953,9.0946913C73.57966834251953,8.9431124,74.21845553251953,8.842061,74.75638153251953,8.842061L76.06757613251953,8.842061L76.06757613251953,10.728367C74.79000183251954,10.91363,73.61328888251953,11.082048,72.68872833251953,11.199944L73.09217283251954,13.136776L76.06757613251953,12.597832L76.06757613251953,15.730446L77.91669703251954,15.730446L77.91669703251954,12.26099L79.41280413251953,11.991518L79.31194253251954,10.239948L77.91669703251954,10.458896L77.91669703251954,8.842061L79.24470183251952,8.842061L79.24470183251952,7.0231223L77.91669703251954,7.0231223L77.91669703251954,4.5978713L76.06757613251953,4.5978713L76.06757613251953,7.0231223L75.10939523251953,7.0231223C75.51283983251953,6.0294442,75.91628433251952,4.9010272,76.26929853251953,3.7220867L79.39599323251953,3.7220867L79.39599323251953,1.8357804L76.79041433251953,1.8357804C76.90808533251953,1.3473613,77.00894693251954,0.84210104,77.10980793251953,0.35368299L75.19344613251953,0C75.10939523251953,0.60631269,75.00853443251953,1.2294679,74.87405273251953,1.8357804L72.90726080251953,1.8357804L72.90726080251953,3.7220867L74.43698803251954,3.7220867C74.13440453251953,4.8168178,73.84863133251953,5.6926022,73.71414983251952,6.0462852C73.41156643251954,6.8041754,73.19303405251954,7.2757521,72.84002004251953,7.3768039C73.04174226251953,7.848381,73.34432578251953,8.7410078,73.44518691251953,9.0946913ZM79.98435023251953,0.84210104L79.98435023251953,2.6610389L84.75844333251953,2.6610389C83.43043933251953,4.4462934,81.26192473251953,5.9115491,78.97573853251953,6.6862812C79.39599323251953,7.1073327,79.96753983251953,7.8820658,80.21969223251953,8.3873262C81.48045633251954,7.8820658,82.70759933251954,7.2252259,83.80026333251953,6.41681C85.06102733251953,7.0736485,86.40584233251953,7.848381,87.12867933251954,8.4041681L88.33901333251953,6.8041754C87.64979633251953,6.3157573,86.45627333251953,5.6926022,85.29637033251953,5.136816C86.33860133251953,4.1094527,87.19592133251953,2.8799858,87.78427733251954,1.465256L86.37222233251953,0.75789106L86.00239733251954,0.84210104L79.98435023251953,0.84210104ZM79.98435023251953,8.6399555L79.98435023251953,10.475737L82.87570333251954,10.475737L82.87570333251954,13.574669L79.14384033251953,13.574669L79.14384033251953,15.444131L88.38944333251953,15.444131L88.38944333251953,13.574669L84.90973533251953,13.574669L84.90973533251953,10.475737L87.66660733251953,10.475737L87.66660733251953,8.6399555L79.98435023251953,8.6399555ZM99.41693133251954,3.7052448C98.37469833251953,5.0862894,96.50876433251953,6.5178618,94.54197333251953,7.5115414L94.39068233251953,6.770493L93.28121033251954,7.1915426L93.28121033251954,5.0526056L94.57559633251952,5.0526056L94.57559633251952,3.1999843L93.28121033251954,3.1999843L93.28121033251954,0.016842406L91.36484733251953,0.016842406L91.36484733251953,3.1999843L89.76787933251953,3.1999843L89.76787933251953,5.0526056L91.36484733251953,5.0526056L91.36484733251953,7.9157491L89.63339833251953,8.5052204L90.15451433251954,10.543104L91.36484733251953,10.054686L91.36484733251953,13.456775C91.36484733251953,13.67572,91.28079833251954,13.743089,91.07907633251953,13.743089C90.87735333251953,13.75993,90.28899533251953,13.75993,89.68383033251953,13.743089C89.93598333251953,14.298876,90.17132333251953,15.157818,90.22175633251953,15.679921C91.33122833251953,15.679921,92.07087533251953,15.595709,92.59199333251954,15.275711C93.11310933251953,14.955713,93.28121033251954,14.416769,93.28121033251954,13.473617L93.28121033251954,9.279952L94.79412833251953,8.6567974C94.99584933251953,8.8925867,95.16395233251953,9.1283751,95.28162233251953,9.3136368C95.85317033251954,9.0273218,96.40790333251954,8.707324,96.94583133251953,8.3536425L96.94583133251953,9.2631111L102.45957233251953,9.2631111L102.45957233251953,8.1178522C103.03111833251953,8.5052204,103.58585333251953,8.8589029,104.10697133251954,9.1283751C104.40955333251954,8.6736403,105.04834333251952,7.9831181,105.46859733251952,7.6294351C103.90524833251953,6.9725957,101.97207633251953,5.7936544,100.77855533251953,4.8673439L101.13156733251952,4.3957672L99.41693133251954,3.7052448ZM101.14837633251953,0.10105228L101.14837633251953,1.41473L98.34107733251953,1.41473L98.34107733251953,0.10105228L96.44152633251953,0.10105228L96.44152633251953,1.41473L94.62602233251954,1.41473L94.62602233251954,3.1663003L96.44152633251953,3.1663003L96.44152633251953,4.6652393L98.34107733251953,4.6652393L98.34107733251953,3.1663003L101.14837633251953,3.1663003L101.14837633251953,4.6652393L103.04792833251953,4.6652393L103.04792833251953,3.1663003L104.99790933251953,3.1663003L104.99790933251953,1.41473L103.04792833251953,1.41473L103.04792833251953,0.10105228L101.14837633251953,0.10105228ZM97.98806233251953,7.6125937C98.61003833251954,7.1241746,99.21520833251952,6.6020713,99.75313333251952,6.0462852C100.30786733251954,6.5347033,100.99708733251953,7.0904913,101.71992733251953,7.6125937L97.98806233251953,7.6125937ZM95.85317033251954,10.105211L95.85317033251954,15.780973L97.73591033251952,15.780973L97.73591033251952,15.191502L101.85440433251954,15.191502L101.85440433251954,15.780973L103.83800733251954,15.780973L103.83800733251954,10.105211L95.85317033251954,10.105211ZM97.73591033251952,13.5073L97.73591033251952,11.772573L101.85440433251954,11.772573L101.85440433251954,13.5073L97.73591033251952,13.5073ZM108.56167633251954,1.1115741L108.56167633251954,3.1999843L120.12708633251953,3.1999843L120.12708633251953,1.1115741L108.56167633251954,1.1115741ZM108.10779933251953,15.225186C109.01554533251954,14.888346,110.20907633251953,14.820979,118.69821133251953,14.164138C119.08485033251952,14.820979,119.42105533251953,15.427289,119.65640233251953,15.949391L121.62319233251952,14.753608C120.78267633251953,13.170459,119.16890333251953,10.76205,117.77365833251953,8.8925867L115.90773033251953,9.8694239C116.41202933251952,10.593631,116.96676633251954,11.402046,117.50469233251954,12.227306L110.78061633251953,12.631515C111.94051733251953,11.284153,113.11723333251953,9.6336355,114.09222433251952,7.9325914L121.85853233251953,7.9325914L121.85853233251953,5.8441806L106.64530933251953,5.8441806L106.64530933251953,7.9325914L111.23448933251953,7.9325914C110.27631333251952,9.7346878,109.15003233251953,11.351521,108.69615533251954,11.83994C108.15822633251953,12.479937,107.80521433251954,12.850461,107.31771833251953,12.968354C107.58668133251953,13.608353,107.97331633251953,14.770452,108.10779933251953,15.225186ZM130.73431433251955,2.1557786C131.65887033251954,2.8968272,132.76834533251952,3.991559,133.2390323325195,4.7157655L134.65108133251954,3.4526138C134.12997033251952,2.711565,132.97006633251954,1.7010444,132.04550933251954,1.0273632L130.73431433251955,2.1557786ZM130.11233533251954,6.6020713C131.08732233251953,7.3431201,132.28085333251954,8.4378529,132.80196333251953,9.1957426L134.18040133251952,7.8820658C133.60885233251952,7.1578584,132.3817063325195,6.1304951,131.40671933251951,5.4399729L130.11233533251954,6.6020713ZM128.75070933251953,0.15157843C127.35546833251954,0.74104869,125.23738133251953,1.2463102,123.32101433251952,1.5326246C123.53955033251952,1.9705164,123.79170233251953,2.6610389,123.85895133251952,3.0989318C124.46411533251953,3.0315633,125.11970933251953,2.930512,125.75849933251953,2.8294599L125.75849933251953,4.7494502L123.20334233251953,4.7494502L123.20334233251953,6.6189141L125.48953233251953,6.6189141C124.88436533251954,8.2525902,123.92618533251954,10.071527,122.98481733251953,11.166258C123.30421033251953,11.67152,123.74127233251953,12.51362,123.92618533251954,13.086249C124.58178733251953,12.244147,125.22056933251953,11.048365,125.75849933251953,9.7515287L125.75849933251953,15.814655L127.70847733251952,15.814655L127.70847733251952,8.9599543C128.11192333251952,9.6167936,128.51536533251954,10.341,128.73390233251953,10.812576L129.89380633251955,9.2294273C129.57440933251954,8.8252192,128.17916533251952,7.2083845,127.70847733251952,6.770493L127.70847733251952,6.6189141L129.92742133251954,6.6189141L129.92742133251954,4.7494502L127.70847733251952,4.7494502L127.70847733251952,2.4420931C128.48175033251954,2.2568309,129.22138933251952,2.037885,129.87699533251953,1.8020967L128.75070933251953,0.15157843ZM129.64164733251954,10.863103L129.96104033251953,12.783093L135.05452733251954,11.890466L135.05452733251954,15.797814L137.05494733251953,15.797814L137.05494733251953,11.553625L139.03854333251954,11.199944L138.71915433251954,9.2967949L137.05494733251953,9.5831099L137.05494733251953,0L135.05452733251954,0L135.05452733251954,9.9367924L129.64164733251954,10.863103ZM149.56172133251954,0L149.56172133251954,2.4084091L145.94753233251953,2.4084091L145.94753233251953,4.277873L149.56172133251954,4.277873L149.56172133251954,6.2989163L146.23330733251953,6.2989163L146.23330733251953,8.1178522L147.12424433251954,8.1178522L146.60312633251954,8.2694311C147.24192033251953,9.8188972,148.03199733251955,11.166258,149.02380333251955,12.311517C147.83027633251953,13.069407,146.46864333251955,13.608353,144.97254133251954,13.962034C145.35917633251952,14.399928,145.82986433251955,15.25887,146.04839333251954,15.780973C147.69579333251954,15.292554,149.19189433251952,14.618874,150.48628233251952,13.709403C151.66299433251953,14.652555,153.0582423325195,15.359922,154.70563533251953,15.831498C154.99142433251953,15.326237,155.56297333251953,14.50098,156.00003033251954,14.096771C154.48711433251952,13.726246,153.17591133251955,13.153617,152.08325233251952,12.395726C153.51211533251953,10.964154,154.58796733251953,9.1115322,155.22676133251952,6.7536502L153.93237333251955,6.2315469L153.59616833251954,6.2989163L151.56214133251953,6.2989163L151.56214133251953,4.277873L155.34442933251952,4.277873L155.34442933251952,2.4084091L151.56214133251953,2.4084091L151.56214133251953,0L149.56172133251954,0ZM148.56991533251954,8.1178522L152.68843033251954,8.1178522C152.18410533251955,9.279952,151.44445833251953,10.273632,150.55352733251954,11.115733C149.71301233251953,10.256791,149.05741833251955,9.2462692,148.56991533251954,8.1178522ZM142.08119233251955,0L142.08119233251955,3.2168252L140.13120233251954,3.2168252L140.13120233251954,5.0862894L142.08119233251955,5.0862894L142.08119233251955,8.0841703C141.27430733251953,8.2694311,140.53465233251953,8.4378529,139.91267433251954,8.5557461L140.43379233251954,10.492579L142.08119233251955,10.071527L142.08119233251955,13.574669C142.08119233251955,13.827298,141.99713933251954,13.911508,141.7617953325195,13.911508C141.54326633251952,13.911508,140.83723433251953,13.911508,140.16483333251955,13.894666C140.41697733251954,14.416769,140.66913633251954,15.225186,140.73637433251952,15.730446C141.92990133251953,15.730446,142.73678633251953,15.679921,143.30833433251954,15.376763C143.87988233251951,15.056766,144.06478833251953,14.568347,144.06478833251953,13.59151L144.06478833251953,9.5494251L145.86347933251955,9.0610065L145.61132833251952,7.2083845L144.06478833251953,7.5957508L144.06478833251953,5.0862894L145.72900433251954,5.0862894L145.72900433251954,3.2168252L144.06478833251953,3.2168252L144.06478833251953,0L142.08119233251955,0Z" fill="#232323" fill-opacity="1"/></svg>