<svg xmlns="http://www.w3.org/2000/svg" xmlns:xlink="http://www.w3.org/1999/xlink" fill="none" version="1.1" width="16" height="16" viewBox="0 0 16 16"><path d="M10.36198325,12.25738808125C9.000026250000001,12.25738808125,7.08693215,11.26976248125,5.901321149999999,10.295027781249999C4.27876015,8.96392008125,2.86477512,6.78930168125,3.303566031,5.20771928125C3.37631422,4.97566178125,3.47760931,4.76248228125,3.60054463,4.57600713125L3.646588,4.5018780212500005C3.63645834,4.51523018125,3.62356633,4.53180629125,3.61343709,4.55114430125L3.68342289,4.44294268125L4.0374949,4.00737470125C4.27922125,3.71177750125,4.75162455,3.66343238925,5.04630055,3.90331723125L6.975509150000001,5.46187838125C7.1256103500000005,5.58389248125,7.21815685,5.75563408125,7.23749545,5.94671278125C7.25683305,6.13733128125,7.20066045,6.32380628125,7.0791065500000006,6.47252558125L6.55927945,7.11252548125C6.59841585,7.35931658125,6.76647425,7.93393568125,7.49165345,8.525129781250001C8.212228750000001,9.11033868125,8.80204205,9.16282798125,9.054358050000001,9.14993618125L9.57418485,8.511317281250001C9.81591125,8.21525998125,10.28739355,8.16783528125,10.582069350000001,8.40772008125L12.50068855,9.96812348125C12.81976895,10.22780608125,12.87133595,10.67580648125,12.61809925,10.98797898125L12.27231595,11.412497081249999C12.10978315,11.61324548125,11.88693335,11.79465678125,11.61067485,11.95304298125C11.22511385,12.15379908125,10.79667945,12.25822258125,10.36198325,12.25738808125ZM4.40445745,5.02032458125L4.36900445,5.08340338125C4.29067925,5.2029682812499995,4.22931825,5.33281938125,4.18667358,5.46924468125C3.90627104,6.480813281250001,4.91369535,8.29491428125,6.4851484500000005,9.58320238125C7.77159505,10.64173408125,9.55622725,11.437360281250001,10.530040750000001,11.32869868125C10.75268455,11.30907628125,10.96948485,11.24686478125,11.168658749999999,11.14544578125C11.32842825,11.053820581250001,11.46793845,10.94239568125,11.55818365,10.83143238125L11.77550795,10.56438158125L10.159391849999999,9.25031038125L9.55852845,9.98884248125L9.41441345,10.02751828125C9.27783345,10.05915928125,9.137900349999999,10.07400368125,8.99772265,10.07172058125C8.51288845,10.07172058125,7.75824065,9.927605581249999,6.91150665,9.23879908125C5.5803987500000005,8.155403581249999,5.62644195,6.98728918125,5.62874465,6.93756248125L5.63703205,6.78792218125L6.23743535,6.049389881250001L4.62408305,4.74682832125L4.41734955,5.00144668125C4.41248165,5.00732978125,4.40816625,5.01364948125,4.40445745,5.02032458125Z" fill="#696969" fill-opacity="1" style="mix-blend-mode:passthrough"/><path d="M7.9995399,16C3.5886047,16,0,12.410936,0,8C0,3.5890641,3.5886045,0,7.9995399,0C12.410936,0,16,3.5890648,16,8C16,12.410936,12.410936,16,7.9995399,16ZM7.9995399,0.92086333C4.0960002,0.92086333,0.92086333,4.0960002,0.92086333,8C0.92086333,11.904001,4.0960002,15.079137,7.9995399,15.079137C11.903541,15.079137,15.079137,11.904001,15.079137,8C15.079137,4.0960002,11.903541,0.92086333,7.9995399,0.92086333Z" fill="#D4D4D4" fill-opacity="1" style="mix-blend-mode:passthrough"/></svg>