<svg xmlns="http://www.w3.org/2000/svg" xmlns:xlink="http://www.w3.org/1999/xlink" fill="none" version="1.1" width="28" height="28" viewBox="0 0 28 28"><ellipse cx="14" cy="14" rx="13.5" ry="13.5" fill-opacity="0" stroke-opacity="1" stroke="#E1E1E1" fill="none" stroke-width="1"/><path d="M14.0612154,18.045004C14.1268167,18.045004,14.193563000000001,18.040793,14.2607608,18.03247C14.9051843,17.951810000000002,15.452398299999999,17.482043,15.6543655,16.8346806C15.6696148,16.7862616,15.6476049,16.7343769,15.6031504,16.7131062C15.5592031,16.6917562,15.5060167,16.710206,15.4811506,16.7536507C15.478803599999999,16.757782900000002,15.222766400000001,17.189084,14.2259974,17.329482C14.076784100000001,17.350360000000002,13.931590100000001,17.361309,13.7939653,17.361309C13.0956235,17.36084,12.7844257,17.086331,12.7815714,17.083804999999998C12.7464323,17.051212,12.6927953,17.05037,12.656773600000001,17.08212C12.6203957,17.11387,12.612019100000001,17.169046,12.636828399999999,17.211275999999998C12.9408326,17.725272,13.4863567,18.045004,14.0612154,18.045004ZM19.420765,11.6024151C19.411974999999998,11.6024151,19.403975000000003,11.6040998,19.395617,11.6040998C18.811574999999998,8.9670968,16.579973199999998,7,13.904377499999999,7C11.1551986,7,8.8723826,9.0757251,8.36641127,11.821865599999999C7.87445006,11.9141965,7.5,12.3651619,7.5,12.9105363L7.5,15.0933018C7.5,15.7050753,7.97040084,16.2011681,8.5512136,16.2011681C8.878843400000001,16.2011681,9.1680291,16.0398121,9.3604,15.7920008C9.825223,17.074168,10.7715085,18.107978,11.9690804,18.653427999999998C11.9719353,18.646926,11.9946036,18.600936,12.0218916,18.56429C12.0407472,18.538885999999998,12.0618758,18.518085,12.0799994,18.518085C12.0987797,18.518085,12.1160207,18.525194,12.1307635,18.536046C11.8535972,18.320827,10.8524346,17.214565999999998,10.6355736,15.6707983C10.5404303,14.9913139,11.028429,14.3242879,11.5967708,14.2139554C12.509176700000001,14.036773700000001,13.4168115,13.8349323,14.329217,13.661100399999999C14.909222100000001,13.550768399999999,15.3055892,13.2189493,15.5479727,12.666465800000001C15.6047659,12.5373106,15.6867819,12.2761803,15.7244177,11.8995857C15.7343903,11.8435869,15.7784138,11.8005943,15.8348303,11.8005943C15.8724661,11.8005943,15.9044504,11.820632,15.9256525,11.849483L15.950819,11.833186600000001C16.3104324,12.3776984,17.0235929,13.5833607,17.1260042,14.8546586C17.2436085,16.3081322,17.1780081,17.303629,16.111263299999997,18.322062000000003C16.1100044,18.323354000000002,16.1083879,18.324961000000002,16.106849699999998,18.326273999999998C16.092031499999997,18.34294,16.0832233,18.364663,16.0832233,18.388539C16.0832233,18.419839,16.099225,18.446613,16.122399299999998,18.462909C16.131206499999998,18.466670999999998,16.1400166,18.471704000000003,16.1488237,18.475464000000002C16.1559982,18.477149,16.162835100000002,18.479597,16.170026800000002,18.479597C16.1772757,18.479597,16.1836624,18.477149,16.1900473,18.475464000000002C16.2052412,18.46712,16.2196074,18.457482,16.234426499999998,18.449139000000002C17.3132296,17.829316,18.140819999999998,16.7942152,18.523253,15.5492239C18.678061,15.7890825,18.920445,15.9617004,19.202007000000002,16.0219107C18.750387,18.164054,16.918458,19.504766,14.648845699999999,19.708272C14.512835500000001,19.356397,14.178012800000001,19.106509000000003,13.7848001,19.106509000000003C13.2712603,19.106509000000003,12.8548541,19.5307,12.8548541,20.05349C12.8548541,20.576299,13.271185899999999,21,13.7848001,21C14.198859200000001,21,14.545626200000001,20.722573,14.6660109,20.341396C17.29319,20.118674,19.399205000000002,18.490076000000002,19.838861,15.9596252C20.227246,15.7903175,20.499999000000003,15.3929214,20.499999000000003,14.9290295L20.5,12.720407C20.5,12.1031113,20.016772,11.6024151,19.420765,11.6024151ZM18.451586,12.2368498C17.76639,10.3010523,15.9908037,8.9181888,13.9020305,8.9181888C11.82199,8.9181888,10.052789,10.2893393,9.3612074,12.2126012C9.3268011,12.1686878,9.2864413,12.1311202,9.2468327,12.0930824C9.6383548,9.7494111,11.572413000000001,7.96746773,13.904377499999999,7.96746773C16.2251873,7.96746773,18.153216,9.7318809,18.557585,12.0592756C18.517618,12.1152744,18.48079,12.1737213,18.451586,12.2368498ZM11.9692311,18.653427999999998C11.9691553,18.653427999999998,11.9691553,18.653427999999998,11.9690804,18.653427999999998C11.9686484,18.654408,11.9686484,18.654564,11.9692311,18.653427999999998Z" fill="#696969" fill-opacity="1" style="mix-blend-mode:passthrough"/></svg>