<svg xmlns="http://www.w3.org/2000/svg" xmlns:xlink="http://www.w3.org/1999/xlink" fill="none" version="1.1" width="133" height="40" viewBox="0 0 133 40"><defs><linearGradient x1="133" y1="20" x2="0" y2="20" gradientUnits="userSpaceOnUse" id="master_svg0_2_0821"><stop offset="0%" stop-color="#23B2FF" stop-opacity="1"/><stop offset="100%" stop-color="#6C57FF" stop-opacity="1"/></linearGradient></defs><g><path d="M32.552002,18.924L32.084,22.271999L25.064001,22.271999L24.740002,24.720001L30.428001,24.720001L29.996,27.816L24.272001,27.816L23.984001,29.903999L31.076,29.903999L30.608002,33.251999L18.692001,33.251999L15.920001,31.92L15.488002,33.251999L11.024002,33.251999L13.868002,24.504002L13.292002,23.424L18.620001,23.424L17.036001,28.392L19.556002,29.688L20.6,22.271999L12.752002,22.271999L13.220001,18.924L32.552002,18.924ZM5.3720021,11.868L5.8400021,8.5200005L4.9760017,7.4760017L12.212002,7.4760017L11.600001,11.868L12.896002,11.868L12.464002,15.072001L11.132002,15.072001L10.556002,19.212002L11.744001,18.852001L11.204001,22.596001L10.052002,22.956001L8.9360018,30.912001Q8.7920017,31.955999,8.0360012,32.622002Q7.2800016,33.287998,6.308002,33.287998L0.51200211,33.287998L2.8160021,30.048L3.5360019,24.936001L1.592002,25.512001L2.1320021,21.732L4.0400019,21.156L4.9040017,15.072001L3.032002,15.072001L3.4640019,11.868L5.3720021,11.868ZM15.596002,9.4560013L14.876001,8.0880013L33.091999,8.0880013L31.724001,17.771999L14.408002,17.771999L15.596002,9.4560013ZM19.808001,11.832001L27.980001,11.832001L28.124001,10.824001L19.952002,10.824001L19.808001,11.832001ZM27.548,14.928001L27.692001,13.92L19.52,13.92L19.376001,14.928001L27.548,14.928001ZM42.560001,14.244001L49.400002,14.244001L45.620003,18.348L47.312,18.348L50.552002,21.299999L54.655998,18.348L56.096001,18.348L53.503998,14.244001L60.344002,14.244001L64.267998,20.400002L60.559998,20.400002L54.440002,24.827999L63.799999,33.324001L54.908001,33.324001L49.472,28.392L42.596001,33.324001L33.704002,33.324001L45.584,24.827999L40.760002,20.400002L36.908001,20.400002L42.560001,14.244001ZM48.716,9.4560013L48.824001,8.7720013L47.672001,7.4040012L55.879997,7.4040012L55.592003,9.4560013L66.175995,9.4560013L65.671997,12.876001L37.628002,12.876001L38.132,9.4560013L48.716,9.4560013ZM76.832001,29.976L78.164001,20.400002L75.5,20.400002L72.907997,33.324001L66.751999,33.324001L71.036003,12.120001L69.919998,10.824001L83.671997,10.824001L83.059998,8.592001L82.052002,7.4040012L88.891998,7.4040012L89.828003,10.824001L99.332001,10.824001L98.863998,14.244001L90.800003,14.244001L92.851997,21.66L97.496002,19.032001L96.848,23.82L93.931999,25.476L95.012001,29.292L96.056,29.292L97.639999,27.924L96.848,33.324001L90.007996,33.324001L88.639999,28.427999L83.456001,31.344L84.139999,26.556L87.559998,24.648001L84.643997,14.244001L76.760002,14.244001L76.183998,16.980001L84.104004,16.980001L82.447998,28.896Q82.267998,29.940001,81.475998,30.642Q80.683998,31.344,79.639999,31.344L75.248001,31.344L76.832001,29.976ZM98.071999,10.140001L91.231995,10.140001L90.872002,7.7640018L97.711998,7.7640018L98.071999,10.140001ZM116.972,15L115.53201,15L116.036,11.508001L118.052,11.508001L118.952,8.6280003L117.872,7.4040012L125.216,7.4040012L123.956,11.508001L132.272,11.508001L129.536,30.948Q129.356,31.992001,128.564,32.639999Q127.772,33.287998,126.728,33.287998L120.536,33.287998L123.704,30.012001L125.828,15L122.876,15L117.26,33.287998L111.284,33.287998L116.972,15ZM103.652,26.700001L105.632,12.660002L102.752,12.660002L103.256,9.0960007L115.172,9.0960007L114.668,12.660002L111.752,12.660002L110.024,24.900002L113.012,24.072001L112.4,28.284L100.052,31.74L100.62801,27.528L103.652,26.700001Z" fill="url(#master_svg0_2_0821)" fill-opacity="1"/></g></svg>