<svg xmlns="http://www.w3.org/2000/svg" xmlns:xlink="http://www.w3.org/1999/xlink" fill="none" version="1.1" width="16" height="16" viewBox="0 0 16 16"><path d="M7.9995399,16C3.5886047,16,0,12.410936,0,8C0,3.5890641,3.5886045,0,7.9995399,0C12.410936,0,16,3.5890648,16,8C16,12.410936,12.410936,16,7.9995399,16ZM7.9995399,0.92086333C4.0960002,0.92086333,0.92086333,4.0960002,0.92086333,8C0.92086333,11.904001,4.0960002,15.079137,7.9995399,15.079137C11.903541,15.079137,15.079137,11.904001,15.079137,8C15.079137,4.0960002,11.903541,0.92086333,7.9995399,0.92086333Z" fill="#D4D4D4" fill-opacity="1" style="mix-blend-mode:passthrough"/><g><path d="M12.1571465,7.271287Q13,8.0334678,13,9.0502748Q13,10.1203141,11.8838167,11.0109563L12.0777197,11.6289425L12.0784969,11.6319523Q12.126195,11.8168087,11.9829731,11.9315596Q11.9084654,12,11.7940378,12Q11.731492,12,11.6603155,11.965522799999999L11.6584625,11.9646249L10.842612299999999,11.534911600000001Q10.230433,11.677694800000001,9.8841143,11.677694800000001Q8.8962407,11.677694800000001,8.0868082,11.199443800000001Q7.3258615,10.749840299999999,6.9842477,10.0327892Q6.8430822,10.0661631,6.6320820000000005,10.0661631Q6.2690158,10.0661631,5.6434634,9.944683600000001Q5.623961700000001,9.940896500000001,5.6108468,9.9383526L5.6041179,9.9383526L5.5007186,9.9165745L4.4257215,10.4373446Q4.2486949,10.523103200000001,4.1031601,10.397764200000001Q3.95401245,10.2693157,4.0160094,10.089112799999999L4.2795579,9.3180671Q3,8.3741903,3,7.0330822Q3,5.7715214,4.0718745,4.88186806Q5.1343691,4,6.6320820000000005,4Q7.950954,4,8.991642500000001,4.70890671Q10.0144844,5.4056571,10.266419899999999,6.4437342Q11.3744612,6.5640841000000005,12.1571465,7.271287ZM6.739550400000001,8.9835901Q6.739550400000001,9.1943512,6.7819841,9.3971596Q6.6885068,9.401407200000001,6.6263459000000005,9.401407200000001Q6.3069468,9.401407200000001,5.7363272,9.2866855L5.5504191,9.2529359Q5.4715568999999995,9.240201500000001,5.384202,9.268415000000001L5.3759367000000005,9.2710848L4.8697954,9.5181227L4.9694657,9.228419299999999Q5.0374238,9.0308886,4.8615142,8.9069347L4.8597202,8.905695Q3.70274305,8.1210165,3.70274264,7.0386393Q3.70274299,6.0662518,4.5508573000000005,5.3727593Q5.4099221,4.67031342,6.6263461,4.67031342Q7.6899261,4.67031348,8.5363312,5.2273978Q9.2979269,5.7286625,9.5350032,6.451495899999999Q8.4174104,6.5189068,7.6116133,7.2057211Q6.739550400000001,7.9490159,6.739550400000001,8.9835901ZM5.5417483,5.5170452999999995Q5.7849255,5.5170452999999995,5.9416087,5.668852Q6.0995984,5.8219242,6.0995984,6.0605898Q6.0995984,6.3040845,5.9441690000000005,6.4560974Q5.7874846,6.6093373,5.539165000000001,6.6041071Q5.2994468,6.6041341,5.1134987,6.4670551Q4.8978659,6.3080931,4.8978659,6.0605898Q4.8978659,5.8130863999999995,5.1134984,5.6541245Q5.2994466,5.5170452999999995,5.5417483,5.5170452999999995ZM8.431914800000001,6.0662715Q8.431914800000001,6.3055985,8.2764854,6.4576113Q8.1208601,6.6098161,7.8740659,6.6098161Q7.6328077,6.6098161,7.4453712,6.470324Q7.2301826,6.3101785,7.2301831,6.0662713Q7.2301831,5.8187679,7.4458151,5.6598063Q7.6317635,5.5227271,7.8740659,5.5227271Q8.1172428,5.5227271,8.2739263,5.6745337Q8.431914800000001,5.8276061,8.431914800000001,6.0662715ZM11.2193956,11.018269100000001L11.1851006,10.9059272Q11.1153069,10.7142305,11.2877636,10.5961409Q12.2826166,9.8767533,12.2743206,9.057051699999999Q12.2743149,8.271057599999999,11.5709343,7.6948218Q10.8568792,7.1098392,9.872643499999999,7.1098397Q8.871022199999999,7.1098392,8.1627688,7.6886621Q7.4652352,8.2587233,7.4652352,9.0558329Q7.4652352,9.852941999999999,8.1627688,10.4230027Q8.8710217,11.0018253,9.872643499999999,11.0018253Q10.1513124,11.0018253,10.724288900000001,10.862851599999999Q10.7398753,10.8590708,10.7487016,10.8569317Q10.780695399999999,10.8462291,10.8247371,10.8462291Q10.8872924,10.8462291,10.958467500000001,10.8807111L10.9603524,10.881624200000001L11.2193956,11.018269100000001ZM8.483994,8.3279619Q8.483994,8.1476445,8.6319461,8.0042977Q8.778592100000001,7.8622157999999995,8.9615474,7.8622157999999995Q9.1997819,7.8622157999999995,9.360768799999999,8.0018516Q9.5193973,8.1394424,9.5193958,8.3279629Q9.5193958,8.516481899999999,9.3607678,8.6540728Q9.199781399999999,8.793708299999999,8.9615474,8.793708299999999Q8.778592100000001,8.793708299999999,8.6319461,8.6516266Q8.483994,8.5082793,8.483994,8.3279619ZM10.3170733,8.3279619Q10.3170733,8.1479459,10.4612145,8.005221800000001Q10.605640900000001,7.8622157999999995,10.7888913,7.8622157999999995Q11.0271263,7.8622157999999995,11.1881132,8.0018516Q11.3467417,8.1394424,11.3467398,8.3279629Q11.3467398,8.516481899999999,11.1881123,8.6540728Q11.0271263,8.793708299999999,10.7888913,8.793708299999999Q10.605640900000001,8.793708299999999,10.4612145,8.650701999999999Q10.3170733,8.507978,10.3170733,8.3279619Z" fill-rule="evenodd" fill="#696969" fill-opacity="1"/></g></svg>