<svg xmlns="http://www.w3.org/2000/svg" xmlns:xlink="http://www.w3.org/1999/xlink" fill="none" version="1.1" width="28" height="28" viewBox="0 0 28 28"><path d="M16.786899,11.5813715C16.968114999999997,11.5813715,17.146832,11.5941644,17.323809,11.6127274C16.841631,9.468504,14.440321,7.875,11.6996117,7.875C8.6352777,7.875,6.125,9.8694659,6.125,12.401841600000001C6.125,13.8633647,6.96033329,15.063751199999999,8.3557038,15.9947777L7.7982411,17.5963573L9.7467968,16.6630421C10.4444823,16.7946291,11.003629700000001,16.9303265,11.6996117,16.9303265C11.8744593,16.9303265,12.0475836,16.922107699999998,12.2198753,16.9089222C12.110853200000001,16.55334,12.0475836,16.1804466,12.0475836,15.793903799999999C12.047601199999999,13.4686022,14.1389341,11.5813715,16.786899,11.5813715ZM13.790092,10.1380186C14.2098885,10.1380186,14.4877586,10.4020154,14.4877586,10.802566800000001C14.4877586,11.201456799999999,14.2098885,11.4687588,13.790092,11.4687588C13.3719816,11.4687588,12.9530382,11.201456799999999,12.9530382,10.8025675C12.9530363,10.4020154,13.3719997,10.1380186,13.790092,10.1380186ZM9.8887219,11.4687405C9.4706101,11.4687405,9.0490925,11.2014382,9.0490925,10.8025489C9.0490925,10.4019976,9.4706106,10.1380007,9.8887222,10.1380007C10.306370300000001,10.1380007,10.5846848,10.4019976,10.5846848,10.8025489C10.5846848,11.201456799999999,10.306369799999999,11.4687405,9.8887219,11.4687405ZM21.875,15.7299604C21.875,13.6018338,19.644721,11.8672371,17.14,11.8672371C14.4877586,11.8672371,12.3989992,13.6018338,12.3989992,15.7299604C12.3989992,17.861177400000003,14.4877586,19.592057,17.14,19.592057C17.694888,19.592057,18.254925999999998,19.459201999999998,18.812352,19.325578999999998L20.341574,20.125L19.922167,18.795081C21.041407,17.993175,21.875,16.9303274,21.875,15.7299604ZM15.602684,15.063751199999999C15.3252592,15.063751199999999,15.0452404,14.800164200000001,15.0452404,14.5312009C15.0452404,14.2659717,15.3252592,13.9990797,15.602684,13.9990797C16.0242033,13.9990797,16.300369,14.2659707,16.300369,14.5311999C16.30037,14.800164200000001,16.0242033,15.063751199999999,15.602684,15.063751199999999ZM18.668722000000002,15.063751199999999C18.393444000000002,15.063751199999999,18.115128,14.800164200000001,18.115128,14.5312009C18.115128,14.2659717,18.393444000000002,13.9990797,18.668722000000002,13.9990797C19.086833,13.9990797,19.366407000000002,14.2659707,19.366407000000002,14.5311999C19.366407000000002,14.800164200000001,19.086833,15.063751199999999,18.668722000000002,15.063751199999999Z" fill="#696969" fill-opacity="1" style="mix-blend-mode:passthrough"/><ellipse cx="14" cy="14" rx="13.5" ry="13.5" fill-opacity="0" stroke-opacity="1" stroke="#E1E1E1" fill="none" stroke-width="1"/></svg>